<?xml version="1.0" encoding="utf-8"?>
<!-- Generator: Adobe Illustrator 25.3.1, SVG Export Plug-In . SVG Version: 6.00 Build 0)  -->
<svg version="1.1" id="Layer_1" xmlns="http://www.w3.org/2000/svg" xmlns:xlink="http://www.w3.org/1999/xlink" x="0px" y="0px"
	 viewBox="0 0 1375.4 1104.2" style="enable-background:new 0 0 1375.4 1104.2;" xml:space="preserve">
<style type="text/css">
	.st0{fill:#F2F2F2;}
	.st1{clip-path:url(#SVGID_2_);}
	.st2{fill:none;}
	.st3{opacity:0.1;}
	.st4{fill:#D7D7D7;}
	.st5{fill:#C2C2C2;}
	.st6{fill:#3A3A3A;}
	.st7{fill:#9B9B9B;}
	.st8{fill:#F48020;}
	.st9{fill:#777777;}
	.st10{opacity:0.41;fill:#4D4D4D;enable-background:new    ;}
	.st11{fill:#DDDDDD;}
	.st12{fill:#F28020;}
	.st13{fill:#8F5B3D;}
	.st14{fill:url(#SVGID_3_);}
	.st15{fill:url(#SVGID_4_);}
	.st16{fill:url(#SVGID_5_);}
	.st17{fill:url(#SVGID_6_);}
	.st18{fill:url(#SVGID_7_);}
	.st19{fill:url(#SVGID_8_);}
	.st20{fill:url(#SVGID_9_);}
	.st21{fill:url(#SVGID_10_);}
	.st22{fill:url(#SVGID_11_);}
	.st23{fill:url(#SVGID_12_);}
	.st24{fill:url(#SVGID_13_);}
	.st25{fill:url(#SVGID_14_);}
	.st26{opacity:5.000000e-02;enable-background:new    ;}
	.st27{opacity:0.2;enable-background:new    ;}
	.st28{fill:url(#SVGID_15_);}
	.st29{fill:#BBBBBB;}
	.st30{fill:#FFFFFF;}
	.st31{fill:#231F20;}
	.st32{fill:url(#SVGID_16_);}
	.st33{fill-rule:evenodd;clip-rule:evenodd;fill:#E4C3A8;}
	.st34{fill-rule:evenodd;clip-rule:evenodd;fill:#905B3D;}
	.st35{fill:#E4C3A8;}
	.st36{fill:url(#SVGID_17_);}
	.st37{opacity:0.2;fill:#754C24;enable-background:new    ;}
	.st38{fill:#545454;}
	.st39{fill:#E8C7AC;}
	.st40{fill:#939393;}
	.st41{fill:#CCCCCC;}
</style>
<g id="Layer_2_1_">
	<g id="Layer_1-2">
		<path class="st0" d="M1034.1,858.3C606.8,861,469.3,605.7,524.2,411.1c42.8-151.8,169-103.9,183.1-265.2
			c13.3-152.1,143.2-204,209.9-64.3s103.3,173.8,213.8,90.1s330.5,49.2,208.8,173.3c-79.9,81.5-146.5,177.4-49.1,273.4
			S1241.5,857,1034.1,858.3z"/>
		<g>
			<defs>
				<path id="SVGID_1_" d="M1034.1,858.3C606.8,861,469.3,605.7,524.2,411.1c42.8-151.8,169-103.9,183.1-265.2
					c13.3-152.1,143.2-204,209.9-64.3s103.3,173.8,213.8,90.1s330.5,49.2,208.8,173.3c-79.9,81.5-146.5,177.4-49.1,273.4
					S1241.5,857,1034.1,858.3z"/>
			</defs>
			<clipPath id="SVGID_2_">
				<use xlink:href="#SVGID_1_"  style="overflow:visible;"/>
			</clipPath>
			<g class="st1">
				<path class="st2" d="M1130.8,280h113.6v69.2h32.2V280h98c12.9-99.1-152.6-177.3-243.7-108.4c-6.6,5-13,9.6-19.1,13.8h18.9V280z"
					/>
				<path class="st2" d="M839.1,598.1c0.2,0.1,0.4,0.1,0.6,0.1h41.5v-96.8c-13.8,20.8-24.6,46.2-25.4,47.9l-18,46.2c0,0,0,0,0,0
					C837.5,596.7,838,597.8,839.1,598.1z"/>
				<path class="st2" d="M951.1,569.2c6.1-6.3,12.3-14.5,17.6-25c1.2-5,2.7-10.1,4-10.5c0.2,0,1.1-0.3,2.3-0.8
					c-0.2-2.7-0.3-7.1-1.5-8.4c-1.5-1.7-3.8-0.5-5.5-0.1c-1,0.2-2.3,0.7-3.4,0.4c-1.3-0.5-1.8-1.9-1.8-3.1c-0.1-1.8,0.5-3.7,0.4-5.5
					c0-0.7-0.3-1.4-0.9-1.8c-0.6-0.2-1.8-0.4-1.4-1.4l0.1-0.2c0.7-1.5,1.7-2.7,2-4.3c0.4-1.9,0.4-3.9,1-5.9c0.2-0.8,0.5-1.5,0.8-2
					c-1.5,0.1-3,0-4.4-0.2c-0.1-1-0.3-3.4,1.1-3.8c0.8-0.1,1.4-0.6,1.8-1.3c0.2-0.6,0.6-1.1,1.1-1.4c0.9-0.5,2.4,0.2,2.8-0.5
					c0.2-0.5,0.7-0.9,1.3-1c0.7-0.3,1.4-0.4,2.2-0.4c0.9,0.2,0.8,1.1,1.8,1c0.6-0.2,1.2-0.6,1.7-1.1c0.6-0.6,1.5-0.8,2.3-0.4
					c0.7,0.5,1.6,0.8,2.5,0.9c5.4-0.4,10.4,3.8,11.6,9c1.2,5.2-1.6,10.3-2.8,15.3c-0.2,0.9-1.6,1.1-3,1.1c0,0.1-0.1,0.2-0.1,0.3
					l3,8.4c0-0.1,0.1-0.1,0.1-0.2c2.2,0.9,4.1,1.9,5.7,3v-64.5c-14.9,1-33.1,2.4-49.4,4.3v100.2H951.1z"/>
				<path class="st2" d="M1276.7,731.5h-32.2h-100.7l-7.4,10.7c-5.5,8-14.6,12.8-24.4,12.8h-45.3v-23.5h-17.4c4,8,6.3,16.9,6.3,26.5
					c0,32.3-26.2,58.6-58.6,58.6c-32.3,0-58.6-26.2-58.6-58.6c0-14.7,5.4-28.2,14.4-38.5H944v12h-14.9c-1.3,9.2-2.5,21-3.7,36.3
					l-5.6-0.4h-71.2c-22.3,0-41-15.3-46.2-35.9H621.4c83.6,75.7,218.1,128,412.7,126.8c132.6-0.8,240.3-59.5,275.3-126.8H1276.7z"/>
				<rect x="970.3" y="564.4" class="st2" width="0" height="7.2"/>
				<path class="st2" d="M603.5,519.5c13,4.6,23.3,14.7,28.3,27.5l2.5,6.1h5.3l78.4-41.6V333.3l56.8-103.6l56.8,103.6V545
					c5.1-8.5,10.1-16.2,13.5-21.7c10-15.6,22.9-36.6,36.1-50.5V238.4H944v212.9c15.6-1.8,32.9-3.3,49.4-4.5V201.1
					c-25.3-20.4-48.1-60.6-76.2-119.5C850.5-58.2,720.6-6.3,707.3,145.8C696,275.6,612.2,270,557.5,341.8h45.9V519.5z M981.3,333
					h-0.6c-0.2-0.4-0.4-0.8-0.6-1.2L981.3,333z"/>
				<path class="st3" d="M896.7,460.7c7.9-3.8,25.9-6.9,47.4-9.4V238.4h-62.8v234.4C886.4,467.4,891.6,463.1,896.7,460.7z"/>
				<path d="M918.2,719.7h1.7c0-0.1,0-0.1,0-0.2h-1.7L918.2,719.7z"/>
				<path d="M929.1,731.5H944v-12h-13C930.4,722.9,929.7,726.8,929.1,731.5z"/>
				<path class="st3" d="M886.4,598.2c1.8,0,3.5-0.3,5.2-0.9l48.5-18.1v0l-1.2,0.4c0.4-0.3,0.8-0.6,1.2-0.8v-6.5
					c0-1.7,1.4-3.1,3.1-3.1h0.9V469c-15.4,1.7-29,3.9-36.3,6.4c-8.9,3-18.2,13.8-26.5,26.1v96.8H886.4z"/>
				<path class="st3" d="M801,719.7h7.2l-5.2-67.1c-0.2-15.4,2-46.5,5.8-61.4c2.9-11.5,13.2-30.2,22.8-46.1V333.3l-56.8-103.6
					L718,333.3v178.1l-78.4,41.6h-5.3l-2.5-6.1c-5-12.8-15.4-22.9-28.3-27.5V341.8h-45.9c-13.3,17.5-24.9,39.5-33.3,69.3
					c-29.9,106-2.8,229.9,97.1,320.4h181.1C801.5,727.7,801,723.8,801,719.7z"/>
				<path d="M1041.2,719.5c3.2,3.6,5.9,7.7,8.1,12h17.4v-12H1041.2z"/>
				<path class="st3" d="M1058.2,443.2c2.5-0.1,4.6,1.8,4.7,4.3l-1.4,211.7h12.4V349.3h0.7v-0.2h169.8V280h-113.6v-94.6h-18.9
					c-52.8,36-87.5,40.7-118.5,15.7v245.8C1022,444.8,1048.1,443.6,1058.2,443.2z"/>
				<polygon points="1151.9,719.7 1143.8,731.5 1244.5,731.5 1244.5,719.7 				"/>
				<path class="st3" d="M1000.3,536.5c0.7-0.2,1.4-0.4,2.1-0.5v-41.3c0-8.6,7-15.5,15.5-15.5h5.3v61.6c0.1-0.8,0.2-1.6,0.2-2.4
					l0-61.8c0-7.1-5.8-12.9-12.9-12.9c-0.2,0-0.5,0-0.7,0c-4.6,0.3-10.2,0.6-16.3,1v64.5C996.5,531.2,998.7,533.7,1000.3,536.5z"/>
				<path d="M981.3,333l-1.2-1.2c0.2,0.4,0.4,0.8,0.6,1.2H981.3z"/>
				<path d="M1244.5,731.5h32.2h32.8c2-3.9,3.8-7.9,5.4-11.8h-70.3V731.5z"/>
				<path class="st3" d="M1276.7,349.2h59c1.4-1.4,2.8-2.9,4.2-4.3c21.3-21.8,32.2-43.8,34.9-64.9h-98V349.2z"/>
				<polygon class="st4" points="962.2,571 961.7,571.2 940,579.3 940,579.3 966.9,569.2 966.9,569.2 				"/>
				<path class="st4" d="M951.1,569.2H944h-0.9c-1.7,0-3.1,1.4-3.1,3.1v6.5C943.5,576.3,947.3,573.1,951.1,569.2z"/>
				<polygon class="st4" points="995.6,558.5 984.1,562.8 973.7,566.7 973.7,566.7 1002.4,556 1002.4,556 				"/>
				<path class="st4" d="M1002.4,536c-0.7,0.2-1.4,0.3-2.1,0.5c0.9,1.5,1.6,3.2,2.1,4.9V536z"/>
				<path class="st5" d="M1023.2,479.2h-5.3c-8.6,0-15.5,7-15.5,15.5V536v5.4c1.3,4.3,1.6,9,1.5,14l-1.5,0.6l0,0l11.8-4.4
					c4.8-1.8,8.2-5.9,9-10.8V479.2z"/>
				<path class="st6" d="M920,719.5c0.7-3.6,1.4-6.9,2.1-9.8l-3.8,9.8H920z"/>
				<path class="st6" d="M1074,680.8v-21.6h-12.4l-0.1,13.4c0,0,0.1,0,0.1,0l0.2,10.9c-0.5,0-41.6,0.8-64.6-0.1l-2.7-0.1
					c-10.4-0.4-21.2-0.9-31.3,0.9c-10.8,1.8-18,3.9-26.6,17.5c-1.4,2.1-3.4,6.9-5.5,17.8h13h8.9c10.7-12.3,26.5-20.1,44.2-20.1
					s33.4,7.8,44.2,20.1h25.5v-38.3h254.7c0-0.1,0-0.2,0-0.4H1074z"/>
				<path class="st6" d="M1066.7,681.2v38.3v12V755h45.3c9.7,0,18.8-4.8,24.4-12.8l7.4-10.7l8.2-11.8h92.6h70.3
					c4.9-12.7,7.2-25.7,6.6-38.5H1066.7z"/>
				<path class="st7" d="M918.2,719.7l0.1-0.2l3.8-9.8c1.6-6.2,3.3-10.8,5.2-13.8c11-17.3,21.9-20.4,34-22.4
					c11.2-1.9,22.6-1.5,33.6-1l2.7,0.1c22.2,0.9,61.7,0.1,63.9,0.1l0.1-13.4l1.4-211.7c-0.1-2.5-2.2-4.4-4.7-4.3
					c-10.1,0.4-36.2,1.6-64.8,3.6c-16.5,1.2-33.8,2.7-49.4,4.5c-21.4,2.5-39.5,5.6-47.4,9.4c-5.1,2.4-10.3,6.7-15.4,12.2
					c-13.2,13.8-26.1,34.9-36.1,50.5c-3.5,5.4-8.4,13.2-13.5,21.7c-9.6,15.9-19.9,34.6-22.8,46.1c-3.8,14.9-6,46-5.8,61.4l5.2,67.1
					H918.2z M837.8,595.6C837.8,595.6,837.8,595.6,837.8,595.6l18-46.2c0.8-1.7,11.6-27.2,25.4-47.9c8.2-12.4,17.6-23.1,26.5-26.1
					c7.3-2.5,20.9-4.6,36.3-6.4c16.3-1.9,34.5-3.3,49.4-4.3c6.1-0.4,11.7-0.7,16.3-1c0.2,0,0.5,0,0.7,0c7.1,0,12.9,5.8,12.9,12.9
					l0,61.8c0,0.8-0.1,1.6-0.2,2.4c-0.9,4.9-4.2,9.1-9,10.8l-11.8,4.4l-28.7,10.7l-6.7,2.5l-26.9,10l-48.5,18.1
					c-1.7,0.6-3.4,0.9-5.2,0.9h-5.1h-41.5c-0.2,0-0.4,0-0.6-0.1C838,597.8,837.5,596.7,837.8,595.6z"/>
				<path d="M919.9,719.7h-1.7h-110H801c0,4.1,0.5,8,1.5,11.8c5.3,20.6,24,35.9,46.2,35.9h71.2l-5.3-0.4
					C916,747.3,917.8,731.5,919.9,719.7z"/>
				<path d="M936.5,701.7c8.6-13.6,15.8-15.7,26.6-17.5c10.1-1.7,20.9-1.3,31.3-0.9l2.7,0.1c23,0.9,64.1,0.1,64.6,0.1l-0.2-10.9
					c0,0,0,0-0.1,0c-2.2,0-41.7,0.8-63.9-0.1l-2.7-0.1c-11-0.5-22.3-0.9-33.6,1c-12.1,2-23,5.2-34,22.4c-1.9,3-3.6,7.6-5.2,13.8
					c-0.7,2.9-1.4,6.2-2.1,9.8c0,0.1,0,0.1,0,0.2c-2.2,11.9-3.9,27.6-5.4,47.3l5.3,0.4l5.6,0.4c1.1-15.3,2.4-27.1,3.7-36.3
					c0.7-4.7,1.3-8.6,2-12C933.1,708.6,935.1,703.8,936.5,701.7z"/>
				<path class="st8" d="M1074.6,680.5V349.3h-0.7v309.9v21.6h247.4c0-0.1,0-0.2,0-0.3H1074.6z"/>
				<path class="st9" d="M997,699.4c-17.6,0-33.4,7.8-44.2,20.1c-9,10.3-14.4,23.7-14.4,38.5c0,32.3,26.2,58.6,58.6,58.6
					c32.3,0,58.6-26.2,58.6-58.6c0-9.5-2.3-18.5-6.3-26.5c-2.2-4.3-4.9-8.4-8.1-12C1030.4,707.2,1014.7,699.4,997,699.4z M997,786.5
					c-16,0-29.1-13-29.1-29s13-29,29.1-29s29.1,13,29.1,29S1013.1,786.5,997,786.5z"/>
				<path class="st9" d="M997,728.4c-16,0-29.1,13-29.1,29s13,29,29.1,29s29.1-13,29.1-29S1013.1,728.4,997,728.4z M997.5,767
					c-5.5,0-10-4.5-10-10s4.5-10,10-10s10,4.5,10,10S1003,767,997.5,767z"/>
				<path class="st10" d="M997,728.4c-16,0-29.1,13-29.1,29s13,29,29.1,29s29.1-13,29.1-29S1013.1,728.4,997,728.4z M997.5,767
					c-5.5,0-10-4.5-10-10s4.5-10,10-10s10,4.5,10,10S1003,767,997.5,767z"/>
				<circle class="st11" cx="997.5" cy="757" r="10"/>
				<path class="st12" d="M961.7,571.2c0.2-0.2,0.4-0.5,0.7-0.7c1.3-5.3,2.7-10.7,4.1-16c0.3-1.3,1.2-5.8,2.3-10.3
					c-5.2,10.6-11.5,18.8-17.6,25c-3.8,3.9-7.6,7.1-11.1,9.6c-0.4,0.3-0.8,0.6-1.2,0.8l1.2-0.4L961.7,571.2z"/>
				<path class="st13" d="M987.6,526.4l-3-8.4c0-0.1,0.1-0.2,0.1-0.3c-1.2,0-2.3-0.2-2.3-0.2s3.8-3.7,2.4-7.4
					c-0.7-1.9-2.7-1.4-4.2-0.7c-1,0.5-1.9,1.2-2.7,2.1c-0.5,0.7-1.1,2.4-2.1,2.3c-0.3,0-0.6-0.2-0.9-0.4c-1-0.9-1.7-2.1-1.9-3.4
					c-0.1-0.7,0.1-1.4,0-2.1c0-0.9-0.4-1.8-1.2-2.3c-0.8-0.5-1.6-1-2.5-1.4c-0.1,0-0.2-0.1-0.2-0.2c-0.6-0.6,0.6-2.2,1.1-2.6
					c-0.8,0.3-1.7,0.3-2.5-0.2c-0.9-0.4-1.9-0.6-2.8-0.7c-0.1,0-0.1,0-0.2,0c-0.3,0.6-0.6,1.3-0.8,2c-0.6,1.9-0.5,3.9-1,5.9
					c-0.3,1.6-1.3,2.9-2,4.3l-0.1,0.2c-0.3,1,0.8,1.1,1.4,1.4c0.6,0.4,0.9,1.1,0.9,1.8c0.1,1.8-0.5,3.6-0.4,5.5
					c0.1,1.2,0.5,2.7,1.8,3.1c1,0.3,2.4-0.1,3.4-0.4c1.7-0.4,4.1-1.5,5.5,0.1c1.2,1.3,1.3,5.7,1.5,8.4
					C978.8,531.5,986,528.4,987.6,526.4z"/>
				<path d="M967.7,501.2c0.8,0.4,1.7,0.5,2.5,0.2c-0.5,0.4-1.7,2-1.1,2.6c0.1,0.1,0.2,0.1,0.2,0.2c0.9,0.4,1.7,0.8,2.5,1.4
					c0.7,0.5,1.2,1.4,1.2,2.3c0.1,0.7-0.1,1.4,0,2.1c0.2,1.3,0.9,2.5,1.9,3.4c0.2,0.3,0.5,0.4,0.9,0.4c1,0,1.6-1.7,2.1-2.3
					c0.7-0.9,1.6-1.6,2.7-2.1c1.4-0.7,3.4-1.2,4.2,0.7c1.5,3.7-2.4,7.4-2.4,7.4s1.1,0.2,2.3,0.2c1.3,0,2.8-0.2,3-1.1
					c1.1-5,3.9-10.2,2.8-15.3c-1.2-5.2-6.2-9.4-11.6-9c-0.9-0.1-1.8-0.4-2.5-0.9c-0.8-0.4-1.7-0.2-2.3,0.4c-0.5,0.5-1,0.9-1.7,1.1
					c-1,0.1-0.9-0.8-1.8-1c-0.7,0-1.5,0.1-2.2,0.4c-0.6,0.1-1.1,0.5-1.3,1c-0.4,0.7-1.9,0-2.8,0.5c-0.6,0.3-1,0.8-1.1,1.4
					c-0.3,0.7-1,1.2-1.8,1.3c-1.4,0.4-1.1,2.8-1.1,3.8c1.5,0.2,3,0.3,4.4,0.2c0.1,0,0.1,0,0.2,0
					C965.9,500.7,966.8,500.9,967.7,501.2z"/>
				<linearGradient id="SVGID_3_" gradientUnits="userSpaceOnUse" x1="955.5233" y1="538.5453" x2="1008.4093" y2="538.5453">
					<stop  offset="0" style="stop-color:#FC7D0E"/>
					<stop  offset="1" style="stop-color:#FFA323"/>
				</linearGradient>
				<path class="st14" d="M975.1,533.7c0-0.2,0-0.5-0.1-0.8c-1.2,0.5-2.1,0.7-2.3,0.8c-1.4,0.5-2.8,5.5-4,10.5
					c0.7-1.4,1.3-2.7,2-4.2C971.5,537.3,973.1,535.2,975.1,533.7z"/>
				<linearGradient id="SVGID_4_" gradientUnits="userSpaceOnUse" x1="955.5233" y1="533.3727" x2="1008.4093" y2="533.3727">
					<stop  offset="0" style="stop-color:#FC7D0E"/>
					<stop  offset="1" style="stop-color:#FFA323"/>
				</linearGradient>
				<path class="st15" d="M986.6,533.2c2.4,1.6,4,4.3,4.5,7.3c0.8-0.5,1.5-0.9,2.3-1.3v-10.1c-1.7-1.1-3.5-2.1-5.7-3
					c0,0.1-0.1,0.1-0.1,0.2l2.2,6.1C988.5,532.7,987.5,532.9,986.6,533.2z"/>
				<path d="M1000.3,536.5c-1.6-2.8-3.8-5.3-6.9-7.3v10.1C995.6,538.1,997.9,537.2,1000.3,536.5z"/>
				<linearGradient id="SVGID_5_" gradientUnits="userSpaceOnUse" x1="955.5233" y1="534.204" x2="1008.4093" y2="534.204">
					<stop  offset="0" style="stop-color:#FC7D0E"/>
					<stop  offset="1" style="stop-color:#FFA323"/>
				</linearGradient>
				<path class="st16" d="M1000.3,536.5c-1.6-2.8-3.8-5.3-6.9-7.3v10.1C995.6,538.1,997.9,537.2,1000.3,536.5z"/>
				<path class="st4" d="M991.1,540.5c0.3,1.9,0.2,3.8-0.4,5.8c0,0-0.1,0.4-0.3,1.1c4,2.2,5.5,6.6,5.2,11.1l6.8-2.5v-14.6
					c-0.5-1.7-1.2-3.4-2.1-4.9c-2.4,0.7-4.7,1.6-6.9,2.7C992.6,539.6,991.9,540.1,991.1,540.5z"/>
				<linearGradient id="SVGID_6_" gradientUnits="userSpaceOnUse" x1="955.5233" y1="547.5184" x2="1008.4093" y2="547.5184">
					<stop  offset="0" style="stop-color:#FC7D0E"/>
					<stop  offset="1" style="stop-color:#FFA323"/>
				</linearGradient>
				<path class="st17" d="M991.1,540.5c0.3,1.9,0.2,3.8-0.4,5.8c0,0-0.1,0.4-0.3,1.1c4,2.2,5.5,6.6,5.2,11.1l6.8-2.5v-14.6
					c-0.5-1.7-1.2-3.4-2.1-4.9c-2.4,0.7-4.7,1.6-6.9,2.7C992.6,539.6,991.9,540.1,991.1,540.5z"/>
				<path class="st5" d="M1003.9,555.4c0.1-5-0.2-9.7-1.5-14V556L1003.9,555.4z"/>
				<linearGradient id="SVGID_7_" gradientUnits="userSpaceOnUse" x1="955.5233" y1="548.7108" x2="1008.4093" y2="548.7108">
					<stop  offset="0" style="stop-color:#FC7D0E"/>
					<stop  offset="1" style="stop-color:#FFA323"/>
				</linearGradient>
				<path class="st18" d="M1003.9,555.4c0.1-5-0.2-9.7-1.5-14V556L1003.9,555.4z"/>
				<path class="st12" d="M962.4,570.5c4.5-4.8,8.9-10.4,12.7-16.8c2.8-6,9.4-8.9,14.8-6.5c0.2,0.1,0.4,0.2,0.6,0.3
					c0.2-0.7,0.3-1.1,0.3-1.1c0.6-2,0.7-4,0.4-5.8c-0.5-3-2.1-5.7-4.5-7.3c-2,0.6-3.5,1.4-6.4,1.9c-1.7,0.3-4.6,2.1-5-0.6
					c0-0.2-0.1-0.5-0.1-0.8c-2,1.5-3.6,3.7-4.5,6.3c-0.6,1.4-1.3,2.8-2,4.2c-1.1,4.5-1.9,9-2.3,10.3
					C965,559.8,963.7,565.1,962.4,570.5z"/>
				<linearGradient id="SVGID_8_" gradientUnits="userSpaceOnUse" x1="955.5233" y1="551.8408" x2="1008.4093" y2="551.8408">
					<stop  offset="0" style="stop-color:#FC7D0E"/>
					<stop  offset="1" style="stop-color:#FFA323"/>
				</linearGradient>
				<path class="st19" d="M962.4,570.5c4.5-4.8,8.9-10.4,12.7-16.8c2.8-6,9.4-8.9,14.8-6.5c0.2,0.1,0.4,0.2,0.6,0.3
					c0.2-0.7,0.3-1.1,0.3-1.1c0.6-2,0.7-4,0.4-5.8c-0.5-3-2.1-5.7-4.5-7.3c-2,0.6-3.5,1.4-6.4,1.9c-1.7,0.3-4.6,2.1-5-0.6
					c0-0.2-0.1-0.5-0.1-0.8c-2,1.5-3.6,3.7-4.5,6.3c-0.6,1.4-1.3,2.8-2,4.2c-1.1,4.5-1.9,9-2.3,10.3
					C965,559.8,963.7,565.1,962.4,570.5z"/>
				<path class="st13" d="M975.2,534.5c0.4,2.7,3.3,0.9,5,0.6c2.9-0.5,4.4-1.2,6.4-1.9c0.9-0.3,1.9-0.6,3.2-0.8l-2.2-6.1
					c-1.6,2-8.8,5.1-12.6,6.5c0,0.3,0,0.5,0.1,0.8C975.1,534,975.1,534.3,975.2,534.5z"/>
				<linearGradient id="SVGID_9_" gradientUnits="userSpaceOnUse" x1="955.5233" y1="531.1672" x2="1008.4093" y2="531.1672">
					<stop  offset="0" style="stop-color:#FC7D0E"/>
					<stop  offset="1" style="stop-color:#FFA323"/>
				</linearGradient>
				<path class="st20" d="M975.2,534.5c0.4,2.7,3.3,0.9,5,0.6c2.9-0.5,4.4-1.2,6.4-1.9c0.9-0.3,1.9-0.6,3.2-0.8l-2.2-6.1
					c-1.6,2-8.8,5.1-12.6,6.5c0,0.3,0,0.5,0.1,0.8C975.1,534,975.1,534.3,975.2,534.5z"/>
				<path class="st12" d="M961.7,571.2l0.5-0.2c0-0.2,0.1-0.3,0.1-0.5C962.1,570.7,961.9,570.9,961.7,571.2z"/>
				<linearGradient id="SVGID_10_" gradientUnits="userSpaceOnUse" x1="918.4164" y1="570.8118" x2="996.281" y2="570.8118">
					<stop  offset="0" style="stop-color:#FC7D0E"/>
					<stop  offset="1" style="stop-color:#FFA323"/>
				</linearGradient>
				<path class="st21" d="M961.7,571.2l0.5-0.2c0-0.2,0.1-0.3,0.1-0.5C962.1,570.7,961.9,570.9,961.7,571.2z"/>
				<path class="st4" d="M990.4,547.5c-0.6,2.4-2.3,8.2-6.3,15.3l11.5-4.3C995.9,554.1,994.4,549.6,990.4,547.5z"/>
				<linearGradient id="SVGID_11_" gradientUnits="userSpaceOnUse" x1="955.5233" y1="555.1378" x2="1008.4093" y2="555.1378">
					<stop  offset="0" style="stop-color:#FC7D0E"/>
					<stop  offset="1" style="stop-color:#FFA323"/>
				</linearGradient>
				<path class="st22" d="M990.4,547.5c-0.6,2.4-2.3,8.2-6.3,15.3l11.5-4.3C995.9,554.1,994.4,549.6,990.4,547.5z"/>
				<linearGradient id="SVGID_12_" gradientUnits="userSpaceOnUse" x1="918.4164" y1="555.1378" x2="996.281" y2="555.1378">
					<stop  offset="0" style="stop-color:#FC7D0E"/>
					<stop  offset="1" style="stop-color:#FFA323"/>
				</linearGradient>
				<path class="st23" d="M990.4,547.5c-0.6,2.4-2.3,8.2-6.3,15.3l11.5-4.3C995.9,554.1,994.4,549.6,990.4,547.5z"/>
				<path class="st12" d="M989.9,547.2c-5.4-2.5-12,0.5-14.8,6.5c-3.9,6.4-8.2,12-12.7,16.8c0,0.2-0.1,0.3-0.1,0.5l4.7-1.8l6.7-2.5
					l10.5-3.9c4-7.1,5.7-13,6.3-15.3C990.2,547.4,990,547.3,989.9,547.2z"/>
				<linearGradient id="SVGID_13_" gradientUnits="userSpaceOnUse" x1="955.5233" y1="558.6329" x2="1008.4093" y2="558.6329">
					<stop  offset="0" style="stop-color:#FC7D0E"/>
					<stop  offset="1" style="stop-color:#FFA323"/>
				</linearGradient>
				<path class="st24" d="M989.9,547.2c-5.4-2.5-12,0.5-14.8,6.5c-3.9,6.4-8.2,12-12.7,16.8c0,0.2-0.1,0.3-0.1,0.5l4.7-1.8l6.7-2.5
					l10.5-3.9c4-7.1,5.7-13,6.3-15.3C990.2,547.4,990,547.3,989.9,547.2z"/>
				<linearGradient id="SVGID_14_" gradientUnits="userSpaceOnUse" x1="918.4164" y1="558.6329" x2="996.281" y2="558.6329">
					<stop  offset="0" style="stop-color:#FC7D0E"/>
					<stop  offset="1" style="stop-color:#FFA323"/>
				</linearGradient>
				<path class="st25" d="M989.9,547.2c-5.4-2.5-12,0.5-14.8,6.5c-3.9,6.4-8.2,12-12.7,16.8c0,0.2-0.1,0.3-0.1,0.5l4.7-1.8l6.7-2.5
					l10.5-3.9c4-7.1,5.7-13,6.3-15.3C990.2,547.4,990,547.3,989.9,547.2z"/>
				<path class="st8" d="M1244.5,349.2h-169.8v0.2v331.1h246.7c-0.8-12.9-4.5-25.6-11.6-38V659h-24.3l0-46.1
					c-18.4-19.4-30.3-38.7-36.8-57.9v104h-24.3l0-245.3l-36.8-13V659h-24.3l0-266.8l-36.8-13V659h-24.3l0-288.3h24.2h36.9h24.2h36.9
					h24.2h36.8h24.2h5.9c6.5-7.3,13.2-14.4,20.1-21.5h-59H1244.5z"/>
				<path class="st8" d="M1248.6,476.7c4.9-15.8,12.4-31.5,21.8-46.8l-21.8-7.7V476.7z"/>
				<polygon class="st8" points="1126.4,370.7 1126.4,379.2 1163.3,392.2 1163.3,370.7 				"/>
				<polygon class="st26" points="1126.4,370.7 1126.4,379.2 1163.3,392.2 1163.3,370.7 				"/>
				<polygon class="st8" points="1187.5,370.7 1187.5,400.7 1224.4,413.7 1224.4,370.7 				"/>
				<polygon class="st26" points="1187.5,370.7 1187.5,400.7 1224.4,413.7 1224.4,370.7 				"/>
				<path class="st8" d="M1248.6,370.7v51.6l21.8,7.7c4.6-7.5,9.7-15,15.1-22.4l0-36.8H1248.6z"/>
				<path class="st26" d="M1248.6,370.7v51.6l21.8,7.7c4.6-7.5,9.7-15,15.1-22.4l0-36.8H1248.6z"/>
				<path class="st8" d="M1309.7,377.3c1.9-2.2,3.9-4.4,5.9-6.7h-5.9V377.3z"/>
				<path class="st26" d="M1309.7,377.3c1.9-2.2,3.9-4.4,5.9-6.7h-5.9V377.3z"/>
				<polygon class="st8" points="1102.1,659 1126.4,659 1126.4,379.2 1102.2,370.7 				"/>
				<polygon class="st27" points="1102.1,659 1126.4,659 1126.4,379.2 1102.2,370.7 				"/>
				<polygon class="st8" points="1102.2,370.7 1126.4,379.2 1126.4,370.7 				"/>
				<polygon class="st26" points="1102.2,370.7 1126.4,379.2 1126.4,370.7 				"/>
				<polygon class="st27" points="1102.2,370.7 1126.4,379.2 1126.4,370.7 				"/>
				<polygon class="st8" points="1163.2,659 1187.5,659 1187.5,400.7 1163.3,392.2 				"/>
				<polygon class="st27" points="1163.2,659 1187.5,659 1187.5,400.7 1163.3,392.2 				"/>
				<polygon class="st8" points="1163.3,370.7 1163.3,392.2 1187.5,400.7 1187.5,370.7 				"/>
				<polygon class="st26" points="1163.3,370.7 1163.3,392.2 1187.5,400.7 1187.5,370.7 				"/>
				<polygon class="st27" points="1163.3,370.7 1163.3,392.2 1187.5,400.7 1187.5,370.7 				"/>
				<path class="st8" d="M1224.4,413.7l0,245.3h24.3V555c-9-26.4-7.9-52.6,0-78.3v-54.5L1224.4,413.7z"/>
				<path class="st27" d="M1224.4,413.7l0,245.3h24.3V555c-9-26.4-7.9-52.6,0-78.3v-54.5L1224.4,413.7z"/>
				<polygon class="st8" points="1248.6,422.2 1248.6,370.7 1224.4,370.7 1224.4,413.7 				"/>
				<polygon class="st26" points="1248.6,422.2 1248.6,370.7 1224.4,370.7 1224.4,413.7 				"/>
				<polygon class="st27" points="1248.6,422.2 1248.6,370.7 1224.4,370.7 1224.4,413.7 				"/>
				<path class="st8" d="M1309.7,659v-16.5c-4.8-8.3-11.1-16.4-19-24.3c-1.8-1.8-3.6-3.6-5.2-5.3l0,46.1H1309.7z"/>
				<path class="st27" d="M1309.7,659v-16.5c-4.8-8.3-11.1-16.4-19-24.3c-1.8-1.8-3.6-3.6-5.2-5.3l0,46.1H1309.7z"/>
				<path class="st8" d="M1285.5,370.7l0,36.8c7.5-10.2,15.6-20.3,24.3-30.2v-6.7H1285.5z"/>
				<path class="st26" d="M1285.5,370.7l0,36.8c7.5-10.2,15.6-20.3,24.3-30.2v-6.7H1285.5z"/>
				<path class="st27" d="M1285.5,370.7l0,36.8c7.5-10.2,15.6-20.3,24.3-30.2v-6.7H1285.5z"/>
			</g>
		</g>
		<g id="Holding_Box">
			
				<linearGradient id="SVGID_15_" gradientUnits="userSpaceOnUse" x1="2500.7" y1="385.121" x2="2501.2" y2="385.121" gradientTransform="matrix(-1 0 0 -1 3928.6299 1104.0341)">
				<stop  offset="0" style="stop-color:#FD7D0E"/>
				<stop  offset="0.5" style="stop-color:#FE8E17"/>
				<stop  offset="1" style="stop-color:#FFA423"/>
			</linearGradient>
			<path class="st28" d="M444.1,751.1c-17.7-31.6-85.2-200.7-147-160.1c-25.5,19.9-30.1,60.7-17.3,89.6
				c46.8,71.1,116.7,242.9,210.4,140.9c42.5-46.9,72.8-103.4,108-155.7c15.5-21.3-19.3-36.4-29.5-52.4
				C529.1,659.9,493.1,713.8,444.1,751.1z"/>
			<path class="st29" d="M786.9,577.4L661.3,462.7c-1.3-1.2-3.3-1.1-4.5,0.2c0,0,0,0,0,0L468.1,669.5c-1.2,1.3-1.1,3.3,0.2,4.5
				L594,788.7c1.3,1.2,3.3,1.1,4.5-0.2l188.7-206.7c1.1-1.2,1.1-3.1-0.1-4.2C787,577.5,787,577.5,786.9,577.4z"/>
			<path class="st30" d="M548.7,605.5l50.6-55.4l21,19.2l-50.5,55.4L548.7,605.5z"/>
			
				<rect x="600.8" y="556.4" transform="matrix(0.6743 -0.7385 0.7385 0.6743 -221.8223 630.2031)" class="st31" width="5.5" height="20.4"/>
			
				<rect x="591.8" y="563.7" transform="matrix(0.6743 -0.7385 0.7385 0.6743 -228.3685 626.5733)" class="st31" width="8.6" height="17"/>
			
				<rect x="590" y="569.5" transform="matrix(0.6743 -0.7385 0.7385 0.6743 -234.4352 624.5361)" class="st31" width="1.5" height="17"/>
			
				<rect x="584.9" y="573.4" transform="matrix(0.6743 -0.7385 0.7385 0.6743 -238.4225 623.1857)" class="st31" width="4.8" height="17"/>
			
				<rect x="582.5" y="577.3" transform="matrix(0.6743 -0.7385 0.7385 0.6743 -242.5099 621.8094)" class="st31" width="2.4" height="17"/>
			
				<rect x="576.2" y="583.3" transform="matrix(0.6743 -0.7385 0.7385 0.6743 -248.7021 619.731)" class="st31" width="4" height="17"/>
			
				<rect x="562.8" y="598.1" transform="matrix(0.6743 -0.7385 0.7385 0.6743 -265.0776 615.6552)" class="st31" width="5.2" height="20.4"/>
			
				<rect x="566.8" y="594.4" transform="matrix(0.6743 -0.7385 0.7385 0.6743 -260.1902 615.861)" class="st31" width="2.6" height="17"/>
			
				<rect x="570.4" y="590.5" transform="matrix(0.6743 -0.7385 0.7385 0.6743 -256.132 617.2284)" class="st31" width="2.6" height="17"/>
			
				<rect x="574.3" y="586.8" transform="matrix(0.6743 -0.7385 0.7385 0.6743 -252.3252 618.5152)" class="st31" width="1.5" height="17"/>
			<polygon points="258.1,1104.2 231.8,983.7 400.8,941.8 409.8,1104.2 			"/>
			<path class="st6" d="M179.3,1104.2c3.2-72,5.8-121,5.8-121l174.8-8.1c0,0-8.6,52.9-21.7,129L179.3,1104.2z"/>
			
				<linearGradient id="SVGID_16_" gradientUnits="userSpaceOnUse" x1="2500.7" y1="212.098" x2="2501.2" y2="212.098" gradientTransform="matrix(-1 0 0 -1 3928.6299 1104.0341)">
				<stop  offset="0" style="stop-color:#FD7D0E"/>
				<stop  offset="1" style="stop-color:#FFA423"/>
			</linearGradient>
			<path class="st32" d="M413.9,887.7c33.4,147.3-197.8,114.4-223.4,119.4c-4.9,1-9.7-2.2-10.7-7.2c-0.2-0.9-0.2-1.7-0.1-2.6
				l4.4-51.3c2-24,6.7-46.9,3.5-71.3c-3.2-23.7-11.4-46.6-19.6-68.8c-2.4-6.4-5.1-13-7.5-19.6c-17.8,55.7,140-48,118.8,6.8"/>
			<path id="SVGID" class="st33" d="M329.3,613.5l6.5-77.3c12.4,4.2,11.4,15.9,33.6,10.3c16.6-4.1,17.9-35.4,27-43.7
				c2.5-2.3,6.7-0.4,8.4-4.6c1.6-4-5.1-10.6-7.2-13.3c-9.5-11.6-2.4-26.7-0.9-40c1.7-13.3-0.7-22.2-9.5-32.9
				c-24.3-29.4-89.9-28.4-103,9.8c-7,20.2-3.4,41.2,5.6,59.6l3.5,6.4l-44,104.4L329.3,613.5z"/>
			<path class="st34" d="M262.5,463.9c0.8,9.5,3.3,18.9,7.6,27.5c2.1,4.1,6.6,14.5,11.2,16.5c14.5,6.5,14.7-16.9,15.8-25
				c1.1-7.2,4.9-15.5,12.1-16.9c3.6,12.5,6,25.2,7.3,38.1c1.3,12.8,1.5,26.6,9.3,37.1c9.5,12.8,26,15.6,40.5,18.9
				c2.2,0.4,4.4,0.4,6.5,0c6.2-1.3,9.1-7.9,11-14.6c1.2-4.3,2.1-9,3.1-12.5c0.5-1.7,7.7-24.5,6.4-24.9c-7.9-2.5-16.4,0.9-24,3.9
				c-9.5,3.8-21.4,6.8-29.2-1.8c-2.7-3.1-4.7-6.6-6.1-10.4c-4.3-11.9-5.5-24.7-3.4-37.2c1.7-9.1,5-17.3,13.8-21.3
				c6.8-3.2,14.6-4.5,22.1-5.1c17.2-1.4,35.3-5.6,47.8-17.2c2.4-2.7,4.7-5.4,6.8-8.3c7.8-10.8,5.4-25.8-5.4-33.6
				c-3.4-2.5-7.4-4-11.6-4.5c-4.9-0.5-9.8,0.5-14.1,2.8c-3.7-3.2-8.3-5.2-13.1-5.6c-9.7-1-19.1,3.8-23.9,12.3
				c-3-1.8-6.3-2.9-9.8-3.3c-10-1.1-19.6,4-24.3,12.9c-1.4-0.2-2.8-0.8-4.2-0.8c-9.7-1.1-18.4,3.6-23.4,11.3
				c-12.2-0.4-22.7,8.3-24.5,20.4c-7.8,3.5-13.1,10.9-14,19.4C251.8,450.4,255.5,458.9,262.5,463.9z"/>
			<path class="st35" d="M694,687.1c-11.1-9.4-4.7-21.3,4.4-31.5c-2.6-21.9,22.1-30.3,37.2-17.2c3.9,3.4,5.3,9,3.4,13.8
				c-0.7,1.8-1.9,3.3-3.3,4.5C726.3,665,707.7,700.4,694,687.1z"/>
			
				<linearGradient id="SVGID_17_" gradientUnits="userSpaceOnUse" x1="2500.7" y1="365.9139" x2="2501.2" y2="365.9139" gradientTransform="matrix(-1 0 0 -1 3928.6299 1104.0341)">
				<stop  offset="0" style="stop-color:#FD7D0E"/>
				<stop  offset="0.5" style="stop-color:#FE8E17"/>
				<stop  offset="1" style="stop-color:#FFA423"/>
			</linearGradient>
			<path class="st36" d="M345,608.2l-13.6-18.9c-13,62.1-52.4-35.5-81.6-21.6c-15.4,7.4-45.3,20.6-45.3,20.6
				c-80.3,31.2-71,207.1-41.5,295.5c5.2,15.4,19.6,25.9,35.9,26.1c33.9,0.6,106.2-1.6,248.4-18.5v-58.8c-1.7-0.5-36.4,1.3-36.4,1.3
				S381.6,660,345,608.2z"/>
			<path class="st37" d="M319.3,808.8c9.4,10.5,20.8,19,33.4,25.2l0,0c-2,0-3.9,0-5.3-0.1c-18.2-1-105.5-3.4-105.5-3.4
				s10.1-82.9,10.7-122C252.6,708.3,286.4,772.3,319.3,808.8z"/>
			<polygon class="st38" points="476.4,912 459.2,912.3 476.8,818.3 532,825.1 			"/>
			<path class="st39" d="M531.5,839.8c-27.4-22.8-52.6-9.8-84.3-1.9c-2.1,23.5-30.1,48.6,20.1,45.1l16.5-3.5
				C508.1,900.9,521.1,854.4,531.5,839.8z"/>
			<path class="st38" d="M392,788.6l80.9-0.6c5.2,0,9.4,4.1,9.4,9.3l0,1.2c0,5.1-4,9.2-9.1,9.3l-61.4,0.4
				C401,808.2,392.1,799.5,392,788.6C392,788.6,392,788.6,392,788.6L392,788.6L392,788.6z"/>
			<path class="st40" d="M543.8,826.6l-68.7-8.6c-3.8-0.5-7-2.9-8.4-6.5l-6.5-16.1c-2.2-5.4,0.4-11.5,5.8-13.7
				c1.3-0.5,2.8-0.8,4.2-0.8l87.5,2c5.8,0.1,10.4,4.9,10.3,10.7c0,1.7-0.5,3.3-1.3,4.8l-12.3,22.7
				C552.3,825,548.1,827.1,543.8,826.6z"/>
		</g>
		<path class="st41" d="M0,1099.2c50.8,2.1,101.6,3.2,152.3,3.9l19,0.3l19,0.2l38.1,0.3l76.2,0.3l76.2-0.3l38.1-0.3l19-0.2l19-0.3
			c50.8-0.7,101.5-1.8,152.3-3.9c-50.8-2.1-101.5-3.2-152.3-3.9l-19-0.3l-19-0.2l-38.1-0.4l-76.2-0.3l-76.2,0.3l-38.1,0.3l-19,0.2
			l-19,0.3C101.6,1096,50.8,1097.1,0,1099.2z"/>
	</g>
</g>
</svg>
