<svg xmlns="http://www.w3.org/2000/svg" xmlns:xlink="http://www.w3.org/1999/xlink" viewBox="0 0 1251.13 1152.1"><defs><style>.cls-1,.cls-2{isolation:isolate;}.cls-14,.cls-2,.cls-24{opacity:0.1;}.cls-3{fill:url(#linear-gradient);}.cls-4{fill:#ffa664;}.cls-5{fill:url(#linear-gradient-2);}.cls-6{fill:#666;}.cls-7{fill:url(#linear-gradient-3);}.cls-8{fill:#e6e6e6;}.cls-9{fill:#141011;}.cls-10{fill:#231f20;}.cls-11{fill:#3a3a3a;}.cls-12{fill:#414343;opacity:0.29;}.cls-12,.cls-14,.cls-18,.cls-20,.cls-21,.cls-32,.cls-33,.cls-35,.cls-40,.cls-43,.cls-44,.cls-45,.cls-46,.cls-49,.cls-50{mix-blend-mode:multiply;}.cls-13{fill:url(#linear-gradient-4);}.cls-15{fill:#e4c3a8;}.cls-16{fill:#545454;}.cls-17{fill:#939393;}.cls-18{fill:#545556;opacity:0.41;}.cls-19{fill:url(#linear-gradient-5);}.cls-20{fill:#4a5254;}.cls-20,.cls-23,.cls-50{opacity:0.15;}.cls-21{fill:#383736;opacity:0.22;}.cls-22{fill:url(#linear-gradient-6);}.cls-23,.cls-24,.cls-25{fill:#905b3d;}.cls-26{fill:url(#linear-gradient-7);}.cls-27{fill:url(#linear-gradient-8);}.cls-28{fill:url(#linear-gradient-9);}.cls-29{opacity:0.66;}.cls-30{fill:#fff;}.cls-31{fill:#404041;}.cls-32{fill:#c6c6c6;}.cls-33{fill:#bbbdbf;}.cls-34{fill:#e2b6a6;}.cls-35,.cls-46{fill:#98b0b6;}.cls-35{opacity:0.2;}.cls-36{fill:url(#linear-gradient-10);}.cls-37{fill:url(#linear-gradient-11);}.cls-38{fill:url(#linear-gradient-12);}.cls-39{fill:url(#linear-gradient-13);}.cls-40{fill:#16212a;}.cls-40,.cls-45{opacity:0.25;}.cls-41{fill:#724129;}.cls-42{fill:url(#linear-gradient-14);}.cls-43,.cls-49{fill:#a28172;}.cls-43{opacity:0.4;}.cls-44{fill:#daaf98;opacity:0.34;}.cls-45,.cls-50{fill:#c29c8a;}.cls-46{opacity:0.35;}.cls-47{fill:url(#linear-gradient-15);}.cls-48,.cls-51{fill:#633517;}.cls-49{opacity:0.3;}.cls-51{fill-rule:evenodd;}.cls-52{fill:url(#linear-gradient-16);}.cls-53{fill:url(#linear-gradient-17);}.cls-54{fill:url(#linear-gradient-18);}.cls-55{fill:url(#linear-gradient-19);}</style><linearGradient id="linear-gradient" x1="395.56" y1="678.53" x2="700.17" y2="678.53" gradientUnits="userSpaceOnUse"><stop offset="0" stop-color="#f48020"/><stop offset="0.29" stop-color="#f27f20"/><stop offset="0.4" stop-color="#eb7c1f"/><stop offset="0.48" stop-color="#e0751e"/><stop offset="0.5" stop-color="#d9721d"/><stop offset="0.53" stop-color="#e0751e"/><stop offset="0.6" stop-color="#eb7c1f"/><stop offset="0.71" stop-color="#f27f20"/><stop offset="1" stop-color="#f48020"/></linearGradient><linearGradient id="linear-gradient-2" x1="198.37" y1="879.15" x2="502.97" y2="879.15" gradientUnits="userSpaceOnUse"><stop offset="0" stop-color="#333"/><stop offset="0.3" stop-color="#313131"/><stop offset="0.41" stop-color="#2a2a2a"/><stop offset="0.48" stop-color="#1f1f1f"/><stop offset="0.5" stop-color="#1a1a1a"/><stop offset="0.52" stop-color="#1f1f1f"/><stop offset="0.6" stop-color="#2a2a2a"/><stop offset="0.7" stop-color="#313131"/><stop offset="1" stop-color="#333"/></linearGradient><linearGradient id="linear-gradient-3" y1="1065.87" x2="304.6" y2="1065.87" gradientUnits="userSpaceOnUse"><stop offset="0" stop-color="#999"/><stop offset="0.3" stop-color="#9b9b9b"/><stop offset="0.4" stop-color="#a2a2a2"/><stop offset="0.48" stop-color="#adadad"/><stop offset="0.5" stop-color="#b3b3b3"/><stop offset="0.53" stop-color="#adadad"/><stop offset="0.6" stop-color="#a2a2a2"/><stop offset="0.71" stop-color="#9b9b9b"/><stop offset="1" stop-color="#999"/></linearGradient><linearGradient id="linear-gradient-4" x1="409.16" y1="435.33" x2="422.59" y2="435.33" gradientUnits="userSpaceOnUse"><stop offset="0" stop-color="#fd7d0e"/><stop offset="0.5" stop-color="#fe8e17"/><stop offset="1" stop-color="#ffa423"/></linearGradient><linearGradient id="linear-gradient-5" x1="345.42" y1="424.84" x2="422.27" y2="424.84" xlink:href="#linear-gradient-4"/><linearGradient id="linear-gradient-6" x1="286.76" y1="449.79" x2="371.41" y2="449.79" xlink:href="#linear-gradient-4"/><linearGradient id="linear-gradient-7" x1="11229.45" y1="512.02" x2="11262.88" y2="486.05" gradientTransform="matrix(-1, 0, 0, 1, 11570.18, 0)" gradientUnits="userSpaceOnUse"><stop offset="0.13" stop-color="#a78258"/><stop offset="0.51" stop-color="#a27d53"/><stop offset="1" stop-color="#926f45"/></linearGradient><linearGradient id="linear-gradient-8" x1="11253.3" y1="442.42" x2="11280.2" y2="481.16" gradientTransform="matrix(-1, 0, 0, 1, 11570.18, 0)" gradientUnits="userSpaceOnUse"><stop offset="0" stop-color="#cdb081"/><stop offset="1" stop-color="#e4c595"/></linearGradient><linearGradient id="linear-gradient-9" x1="1358.2" y1="513.05" x2="1390.19" y2="485.32" gradientTransform="translate(-1092.47)" gradientUnits="userSpaceOnUse"><stop offset="0" stop-color="#b6956b"/><stop offset="1" stop-color="#c3a277"/></linearGradient><linearGradient id="linear-gradient-10" x1="255.59" y1="466.88" x2="316.49" y2="466.88" xlink:href="#linear-gradient-4"/><linearGradient id="linear-gradient-11" x1="3642.39" y1="432.1" x2="3675.82" y2="406.12" gradientTransform="matrix(-1, 0, 0, 1, 4265.55, 0)" xlink:href="#linear-gradient-7"/><linearGradient id="linear-gradient-12" x1="3666.25" y1="362.49" x2="3693.15" y2="401.23" gradientTransform="matrix(-1, 0, 0, 1, 4265.55, 0)" xlink:href="#linear-gradient-8"/><linearGradient id="linear-gradient-13" x1="8945.25" y1="433.12" x2="8977.25" y2="405.39" gradientTransform="translate(-8397.11)" xlink:href="#linear-gradient-9"/><linearGradient id="linear-gradient-14" x1="9280" y1="115.89" x2="9408.5" y2="115.89" gradientTransform="translate(-8831.24)" xlink:href="#linear-gradient-4"/><linearGradient id="linear-gradient-15" x1="6948.13" y1="708.75" x2="7024.56" y2="708.75" gradientTransform="translate(-6850.17)" xlink:href="#linear-gradient-4"/><linearGradient id="linear-gradient-16" x1="-2796.63" y1="785.57" x2="-2767.82" y2="763.19" gradientTransform="matrix(-1, 0, 0, 1, -2584.63, 0)" xlink:href="#linear-gradient-7"/><linearGradient id="linear-gradient-17" x1="-2776.08" y1="725.6" x2="-2752.9" y2="758.98" gradientTransform="matrix(-1, 0, 0, 1, -2584.63, 0)" xlink:href="#linear-gradient-8"/><linearGradient id="linear-gradient-18" x1="15394.66" y1="786.45" x2="15422.22" y2="762.56" gradientTransform="translate(-15247.28)" xlink:href="#linear-gradient-9"/><linearGradient id="linear-gradient-19" x1="6909.77" y1="642.09" x2="6932.41" y2="642.09" gradientTransform="translate(-6628.41 -992.64) rotate(8.71)" xlink:href="#linear-gradient-4"/></defs><g class="cls-1"><g id="Layer_2" data-name="Layer 2"><g id="Layer_1-2" data-name="Layer 1"><path class="cls-2" d="M1242.25,829,719.78,734.27H437.12l69.73,110.66H238.26L313,963.6H37.79l118.78,188.5H431.13a63,63,0,0,0,32.08-8.78L582.1,1073a10.8,10.8,0,0,0-.1-18.65l-36.16-20.87h225a63,63,0,0,0,32.08-8.79L917,957.11a10.8,10.8,0,0,0-2.21-19.58l-46.15-14.76h235.2A63,63,0,0,0,1136,914l109.86-65A10.8,10.8,0,0,0,1242.25,829Z"/><g class="cls-1"><path class="cls-3" d="M396.48,435.34c0,3.12,2,6.26,6.19,8.65L534,519.79c8.23,4.75,21.52,4.73,29.67,0L694.07,444c4.06-2.36,6.09-5.44,6.1-8.53l-.92,398.38c0,3.08-2,6.17-6.1,8.53l-130.44,75.8c-8.14,4.73-21.44,4.75-29.67,0l-131.29-75.8c-4.13-2.39-6.19-5.52-6.19-8.65Z"/><path class="cls-4" d="M562.68,351c-8.23-4.75-21.49-4.75-29.67,0L402.57,426.8c-8.14,4.73-8.13,12.43.1,17.19L534,519.79c8.23,4.75,21.52,4.73,29.67,0L694.07,444c8.17-4.75,8.13-12.43-.1-17.18Z"/></g><g class="cls-1"><path class="cls-5" d="M199.29,720.26c0,3.12,2.05,6.26,6.19,8.64l131.29,75.81c8.23,4.75,21.52,4.73,29.66,0L496.87,728.9c4.06-2.36,6.1-5.44,6.1-8.53l-.91,229.78c0,3.09-2.05,6.17-6.11,8.53l-130.44,75.81c-8.14,4.73-21.43,4.75-29.66,0L204.56,958.68c-4.14-2.38-6.2-5.52-6.19-8.64Z"/><path class="cls-6" d="M365.48,635.92c-8.22-4.75-21.49-4.75-29.66,0l-130.44,75.8c-8.14,4.73-8.13,12.43.1,17.18l131.29,75.81c8.23,4.75,21.52,4.73,29.66,0L496.87,728.9c8.18-4.75,8.13-12.43-.09-17.18Z"/></g><g class="cls-1"><path class="cls-7" d="M.92,979.64c0,3.13,2.05,6.27,6.19,8.65l131.29,75.8c8.23,4.76,21.52,4.74,29.66,0l130.44-75.8c4.06-2.36,6.09-5.44,6.1-8.53l-.92,84.45c0,3.09-2,6.17-6.1,8.53l-130.44,75.81c-8.14,4.73-21.43,4.75-29.66,0L6.19,1072.75c-4.14-2.39-6.2-5.53-6.19-8.65Z"/><path class="cls-8" d="M167.11,895.31c-8.23-4.75-21.49-4.75-29.66,0L7,971.11c-8.14,4.73-8.13,12.43.1,17.18l131.29,75.8c8.23,4.76,21.52,4.74,29.66,0l130.44-75.8c8.17-4.75,8.13-12.43-.1-17.18Z"/></g><polygon class="cls-9" points="359.8 708.38 352.85 710.46 349.66 705.59 353.79 704.52 359.8 708.38"/><path class="cls-2" d="M391.24,724c-40.61,4.53-15.85,9.38-14.59,13.92,2.11,7.58-18.23,10.59-33.1,9.68-40.7-2.49-55.79-13.05-55.79-28.23s25.49-26.76,66.24-25.49c34.15,1.06,60.79,10.44,62.19,15.28C418,715.41,410.73,721.81,391.24,724Z"/><path class="cls-10" d="M358.72,684.7s1.3,4.08,2.52,7.15c.81,2,17.34,13.51,28,17.54.95.36,1,1,1,3.42,0,.31-3.52,2-6.47,2.39a37.06,37.06,0,0,1-10.87,0c-8.74-1.46-17.36-6.72-19-7.73,0,0-1.07-.5-1.1.54,0,.48,0,2,0,2.42l-11.19-4.37a35.07,35.07,0,0,1-1.16-5.44c-.55-7.26.86-16.86.86-16.86Z"/><path class="cls-11" d="M366,498.78s-4.84,89.46-5.37,107c-.74,24.12.47,80.79.66,81.68,1.72,8-19.21,4-23,1.35,0,0-3.79-37.51-5.11-63.14-.19-3.74,1.78-14.32,1.61-16.94-1.88-29.56-9.14-106.94-9.14-106.94Z"/><path class="cls-12" d="M334.77,608.68c.17,2.62-1.8,13.2-1.61,16.94,1.32,25.63,5.11,63.14,5.11,63.14,1.33,1,4.85,2.07,8.74,2.75-.33-9-1-23.3-2.39-38-2.29-24.37-3.12-39.26,0-39.6,3.43-.38,3.43-11,1.9-29.33-1.22-14.68-2.51-65-3-84.16l-17.92,1.32S332.89,579.12,334.77,608.68Z"/><path class="cls-13" d="M409.16,430.54l3.71-4.15s1.56-1.23,4.91.9a10.78,10.78,0,0,1,4.46,5.44c.2.68.72,2.59-.1,3.74-1.33,1.88-7.61,8.16-7.61,8.16Z"/><path class="cls-14" d="M409.16,430.54l3.71-4.15s1.56-1.23,4.91.9a10.78,10.78,0,0,1,4.46,5.44c.2.68.72,2.59-.1,3.74-1.33,1.88-7.61,8.16-7.61,8.16Z"/><path class="cls-15" d="M420.4,422.46c-16.64,15.73-16.66,15.73-23.74,23.15-3.05,3.19.29,4.75,1.41,5.64,1.31,1.05,5.79-.37,6.68-.89,9.13-5.41,22.37-21,22.37-21Z"/><polygon class="cls-16" points="433.37 425.86 428.51 427.52 424.77 399.28 441.02 396.1 433.37 425.86"/><path class="cls-16" d="M406,392h24.1a2.79,2.79,0,0,1,2.79,2.79v.35a2.74,2.74,0,0,1-2.74,2.74H411.88A5.88,5.88,0,0,1,406,392v0A0,0,0,0,1,406,392Z" transform="translate(-103.92 154.11) rotate(-18.57)"/><path class="cls-17" d="M444.52,395.41l-20.24,4a3.1,3.1,0,0,1-3-1.05L418,394.38a3.13,3.13,0,0,1,1.48-5l24.95-7.57a3.12,3.12,0,0,1,4,3.55L447,392.91A3.11,3.11,0,0,1,444.52,395.41Z"/><path class="cls-15" d="M423.6,430c-.69-.61-5-5.61-4.5-6.73.11-.25,2.72-2,1.82-7.61-1.4-8.64,6.81-18,6.81-18s4-1.82,6-2.58c1-.39,2.1-.51,2.45.73a3.24,3.24,0,0,1-1,3.26c-1.38,1.3-3,1.81-4.19,3.35a13.88,13.88,0,0,0-2.48,6.33,29,29,0,0,0,0,10.22c.89,3.91,3.35,7.13-.14,10.39a5.9,5.9,0,0,1-2.1,1.46,2.51,2.51,0,0,1-2.69-.85"/><path class="cls-15" d="M436.34,416.07c-2.74-.73-2.58-3.35-1.82-5.92-2.25-3.64,1.45-7.19,5.21-6.13a2.31,2.31,0,0,1,1.52,3.23C440.29,409.49,439.87,417.27,436.34,416.07Z"/><path class="cls-10" d="M305.21,694.27s-1.88,18.14-2.15,26.2c-.2,5.95,6.72,12.73,14.9,13.23a38,38,0,0,0,4.45-.1c3,0,4.3-3.72,3-11.51-1.19-6.9-4.64-29.64-5-29.84Z"/><path class="cls-11" d="M348.81,487.47c-1.21,6.62-.66,28.48-3.43,49.13-.56,4.18-7.81,9.74-8.38,14.09-3.83,29.16-9.55,60.71-10.83,74.53-2.6,28.08-.8,78.12-.8,78.12.19,3.43-8.07,6.38-8.07,6.38-12-.46-16.35-6.33-16.39-7.52,0,0-.71-14.74-2-49.45a183.73,183.73,0,0,1,2.22-35.6c0-22.37-.23-61.72-.54-67.31-.6-10.85.84-21.61.54-32.25-.38-13.07,15.05-25,15.05-25Z"/><path class="cls-18" d="M321.34,507l-16.7-1.2a22.62,22.62,0,0,0-3.46,11.81c.3,10.64-1.14,21.4-.54,32.25.31,5.59.54,44.94.54,67.31a183.73,183.73,0,0,0-2.22,35.6c1.24,34.71,2,49.45,2,49.45,0,1,3,4,10.62,5.32-.41-19.7-1.64-92.84-.28-130.28C312.51,542.59,321.34,507,321.34,507Z"/><path class="cls-19" d="M412.91,426.35a26.75,26.75,0,0,1-3.34,2.86,8.63,8.63,0,0,0-2.76,1.24c-7.25,5.77-18.92,15.25-19.62,13.48-5.05-12.76-4.46-19.1-8-34.8-4.83-21.52-13.64-28.57-23.21-26.72-5.57,1.08-10.29-1.3-10.59,8.79s19.47,59.53,28.17,71.71A9.87,9.87,0,0,0,387,466.15s16-8,28.28-20.19c1-1,.83-3,1.81-4.09,1.85-2,3.54-3.33,5.14-5.52.29-.4-1.62,4.28-7.7-2.4C412.67,431.91,411.46,427.73,412.91,426.35Z"/><path class="cls-14" d="M421.44,437.23a1.91,1.91,0,0,1-.32.16h0a2.09,2.09,0,0,1-.4.12h0a4.19,4.19,0,0,1-3.06-.83h0c-1.59,1.15-3.21,1.64-5,2.9-.83.57.08,1.7-1.62,3-12.28,9.71-29.32,16.76-30.75,11.62-3.67-13.23-3.17-22.29-6.69-38-4.82-21.52-14.84-22.75-24.41-20.9a24.56,24.56,0,0,1-3.17.35h0l0,.2c3.36,15.93,19.83,56.16,27.57,67A9.87,9.87,0,0,0,387,466.15s16-8,28.28-20.19c1-1,.83-3,1.81-4.09,1.64-1.79,3.16-3,4.59-4.81l-.23.16Z"/><path class="cls-20" d="M421.7,437.05h0l0,0Z"/><path class="cls-21" d="M422.24,436.35l-.51.68v0Z"/><path class="cls-22" d="M289.9,431.49a20.7,20.7,0,0,1,.76-23C295,402,311,391.94,318.48,387.34c15.87-9.77,27.85-4.93,27.85-4.93.91-.13,26.77,6,25,35.48-2.69,44.61-4.68,60.82-3.73,79.1.15,3,1.56,5.39-2.29,8.95-3.16,2.94-17.5,8-25,10.71-14.07,5-38.33-2.18-40.48-5.95s.63-14.94-1.52-31.6S289.9,431.49,289.9,431.49Z"/><path class="cls-14" d="M310.85,441.8c-5.54-13.92-22.94-27.31-22.3-22,.49,4.12,0,12.27,3.76,22,3.82,9.92-1.14,53.65-1.46,56.9-2,20.76,6.9,27.42,6.9,27.42s22.62,1.14,33.09-6.29c-2.17-.56-7-3.33-8.19-6.28-2.66-6.86-2.09-20-2.09-34.27C320.56,466.64,319.72,464.11,310.85,441.8Z"/><path class="cls-15" d="M318.21,356.22c0,3,.1,32.09.1,32.09s.47,9.81,11.51,11.61a13.61,13.61,0,0,0,13.67-5.55l0-32.41S318.21,350.69,318.21,356.22Z"/><path class="cls-23" d="M343.49,394.37l0-15.05-.43-17.15s-20.15-3.17-24.85-.94c0,1.34,0,2.87,0,4.48a8.26,8.26,0,0,0,.94,1.7,23.76,23.76,0,0,0,2.52,2.42c.56,2.14.65,4.35,1.17,6.17.9,3.09,1.95,7.95,4.77,9.77,2.32,1.53,6.92,4,10.55,5.91.24.13-.14,3.79-.44,7.35A13.54,13.54,0,0,0,343.49,394.37Z"/><path class="cls-15" d="M351.82,338.39a9.61,9.61,0,0,0-2.85-5.55s-6.47-6.72-14.33-6.27c-15.92.91-22.81,9.66-22.38,19,.29,6,8.63,12.23,9.16,12.31-.53-.08-2.29-23.59-1.32-23.38,4.13.88,11.44,4.53,11.82,11.19.05.88.8,5.26.47,6-.55,1.34-2.13,4-2.25,5.13-.11,1,.56,2.19,2.39,4.72,1.52,2.09,2,10.41,2.77,15a23.42,23.42,0,0,0,1.12,4.48c1.16.46,2.48.94,4,1.46,2.75.92,9.31-1,9.74-3.34.53-2.85,1.68-7,3.21-18,.32-2.33-1.32-5.22-1.32-5.9a11.58,11.58,0,0,1,.85-2.92,12.62,12.62,0,0,0,.84-4.67C353.74,344.83,351.84,340.28,351.82,338.39Z"/><path class="cls-15" d="M332.53,361.6c-1.83-2.53-2.5-3.76-2.39-4.72.12-1.14,1.7-3.79,2.25-5.13.33-.76-.42-5.14-.47-6-.38-6.66-7.69-10.31-11.82-11.19-1-.21.79,23.3,1.32,23.38l1.52,6.63c.53,2,.89,6.51,1.39,8.22.84,2.92,1.73,3.24,4.32,4.66a59,59,0,0,0,7.77,3.7,23.42,23.42,0,0,1-1.12-4.48C334.51,372,334.05,363.69,332.53,361.6Z"/><path class="cls-24" d="M332.53,361.6c-1.83-2.53-2.5-3.76-2.39-4.72.12-1.14,1.7-3.79,2.25-5.13.33-.76-.42-5.14-.47-6-.38-6.66-7.69-10.31-11.82-11.19-1-.21.79,23.3,1.32,23.38l1.52,6.63c.53,2,.89,6.51,1.39,8.22.84,2.92,1.73,3.24,4.32,4.66a59,59,0,0,0,7.77,3.7,23.42,23.42,0,0,1-1.12-4.48C334.51,372,334.05,363.69,332.53,361.6Z"/><path class="cls-15" d="M316.32,354.26c4.64-1.54,6.61,3.78,8.7,6.76,1.65,9.65-2.41,8.19-5.46,5.9a15.77,15.77,0,0,1-4.38-4.82C313.41,358.67,313.65,355.15,316.32,354.26Z"/><path class="cls-23" d="M316.09,356.91s.54-3,3.37-1a12.17,12.17,0,0,1,3.52,4.83s-1.32,1.17-.66,1.83,1.32,1.68.51,2-3.19-1.38-3.37-2.12c-.51-2.12,2.12-2.12,2.12-2.12a40.71,40.71,0,0,0-2.63-3.59C318,355.75,316.83,355.52,316.09,356.91Z"/><path class="cls-25" d="M344.82,336.54l9.95-1.49a5.23,5.23,0,0,0,3.29-8.47c-2.39-3-4.84-5.72-5.73-5.79a5.88,5.88,0,0,1-2.34-1.31,8.73,8.73,0,0,0-8.77-1.31,5.16,5.16,0,0,0-1.23.71,1.46,1.46,0,0,1-1.44.21,6.6,6.6,0,0,0-1.91-.42,7.51,7.51,0,0,0-6.54,2.84,1.43,1.43,0,0,1-1.34.55,2,2,0,0,0-.34,0A7.41,7.41,0,0,0,322,324.7a1.34,1.34,0,0,1-.93.47,7.05,7.05,0,0,0-6.41,4.95,1.32,1.32,0,0,1-.64.8,6.76,6.76,0,0,0-3.58,5l-2.26,2.64A11,11,0,0,0,306.4,350l2.41,5.78a51.91,51.91,0,0,0,8.58,18.69,1.73,1.73,0,0,0,3.09-1.21c-.26-2.94-.41-5.88-.41-5.88l3.9-7.19c.09,1.95.68,6.58,1.2,10.07A14.73,14.73,0,0,0,339,382.79c6,.29,12.29.09,14.06-1.83,1.37-1.49,1.7-4.77,2.14-7.81.9-6.28-1.52-8-2.34-8.5-1.57-1-5.11-.58-7.52.6-3.84,1.89-8.65,6.86-12.85,3.74C327.61,365.33,315.36,341.25,344.82,336.54Zm-34.45.73.07-.83c0,.12,0,.24,0,.36A1.48,1.48,0,0,1,310.37,337.27Z"/><path class="cls-15" d="M316.32,354.26c3.74-1.24,5.74,2,7.47,4.83a10.9,10.9,0,0,1,1.6,5.23c.21,5.94-3.19,4.58-5.83,2.6a15.77,15.77,0,0,1-4.38-4.82C313.41,358.67,313.65,355.15,316.32,354.26Z"/><path class="cls-23" d="M316.09,356.91s.54-3,3.37-1a12.17,12.17,0,0,1,3.52,4.83s-1.32,1.17-.66,1.83,1.32,1.68.51,2-3.19-1.38-3.37-2.12c-.51-2.12,2.12-2.12,2.12-2.12a40.71,40.71,0,0,0-2.63-3.59C318,355.75,316.83,355.52,316.09,356.91Z"/><polygon class="cls-26" points="345.3 511.35 302.96 535.79 302.96 486.9 345.3 462.46 345.3 511.35"/><polygon class="cls-27" points="345.3 462.46 302.96 486.9 260.62 462.46 302.96 438.01 345.3 462.46"/><polygon class="cls-28" points="260.62 511.35 302.96 535.79 302.96 486.9 260.62 462.46 260.62 511.35"/><g class="cls-29"><polygon class="cls-30" points="329.67 474.05 343.36 466.15 343.36 472.83 329.67 480.73 329.67 474.05"/><polygon class="cls-31" points="341.69 468.75 342.14 468.49 342.14 471.9 341.69 472.16 341.69 468.75"/><polygon class="cls-31" points="340.4 469.5 341.18 469.04 341.18 472.45 340.4 472.9 340.4 469.5"/><polygon class="cls-31" points="339.39 470.08 340.18 469.63 340.18 473.03 339.39 473.49 339.39 470.08"/><polygon class="cls-31" points="338.31 470.7 338.76 470.44 338.76 473.85 338.31 474.11 338.31 470.7"/><polygon class="cls-31" points="334.74 472.76 335.19 472.5 335.19 475.91 334.74 476.17 334.74 472.76"/><polygon class="cls-31" points="333.31 473.59 333.76 473.33 333.76 476.73 333.31 477 333.31 473.59"/><polygon class="cls-31" points="337.02 471.45 337.81 470.99 337.81 474.4 337.02 474.85 337.02 471.45"/><polygon class="cls-31" points="336.01 472.03 336.8 471.57 336.8 474.98 336.01 475.44 336.01 472.03"/><polygon class="cls-31" points="331.86 474.43 332.64 473.97 332.64 477.38 331.86 477.83 331.86 474.43"/><polygon class="cls-31" points="330.89 474.99 331.44 474.67 331.44 478.08 330.89 478.39 330.89 474.99"/></g><polygon class="cls-32" points="295.21 462.46 302.96 457.98 320.26 448 328.01 452.47 310.71 462.46 302.96 466.93 285.67 476.92 277.91 472.44 295.21 462.46"/><polygon class="cls-33" points="277.92 521.34 277.92 472.44 285.67 476.91 285.67 525.81 277.92 521.34"/><path class="cls-34" d="M332.57,513c-1.1,1.71-5.07,5.48-9.37,9a6.46,6.46,0,0,1-8.94-.7c-2.28-2.57-4.86-5.63-7.07-8.29a6.47,6.47,0,0,0-10.18.29l-1.83,2.46a6.49,6.49,0,0,0,.85,8.66l15.66,14.2a6.51,6.51,0,0,0,7.14,1l5.72-2.73a6.25,6.25,0,0,0,1.58-1.06c2.08-1.93,10.51-8.4,10.9-10.19a41.43,41.43,0,0,0,.2-7.93,6.32,6.32,0,0,0-1.15-3.38C335.07,513,333.57,511.39,332.57,513Z"/><path class="cls-35" d="M274.69,503.22c.4.47.82,1,1.26,1.45l.51.57,1.31,1.42.08.09c3.4,3.6,7.5,7.48,11.64,11.18,1.08,1,2.63,2.37,4.44,3.9,7,6,13.34,11.1,15.76,13,1.83,1.52,3.09,2.59,3.31,2.86,2.25,2.81,4.83,3.15,8.46.71-8.38-5.73-35.6-30.84-41.6-40.57Z"/><path class="cls-36" d="M313.46,518.68a2.71,2.71,0,0,0-.4-1.71s-35.49-31.53-33.76-45.89c1.41-11.69,14.75-25.73,24.92-39.51,13-17.65,8-32.07-.6-31.27-7.5.71-15.44,9.62-24.8,22C269.2,435,253.09,464,255.92,474.71c5.41,20.53,42.48,54.06,42.48,54.06s.88,2.06,3.83,1.32l1.88,2.39s.45,1.25,1.05,1a27.92,27.92,0,0,0,11.33-10.67Z"/><path class="cls-14" d="M255.92,474.71c3.37,12.78,19,30.59,30.32,42.22-9.92-14.94-22-35.52-22.49-40.85-.06-.67,9.79,1.1,9.83.21,0-.55-8-1.39-10.32-4.42-.49-.63,3.84.38,8,.66,3.81.26,7.53-.21,6.51-.61-3.64-1.44-14.68-5.65-13.55-9.82,3.55-13.09,11.66-32.53,19.39-46-1.56,1.93-3.15,4-4.79,6.15C269.2,435,253.09,464,255.92,474.71Z"/><path class="cls-2" d="M560.5,463.48l7,3a25.16,25.16,0,0,0,14.91,1.59c45.52-9.08,72.3-27.82,60.44-43.21-12.53-16.27-63.44-22.65-113.7-14.26S448.23,439,460.76,455.26c7.6,9.88,29.35,16.11,56.5,17.6a25,25,0,0,0,17.23-5.71h0A25.2,25.2,0,0,1,560.5,463.48Z"/><polygon class="cls-37" points="627.72 431.42 585.38 455.87 585.38 406.98 627.72 382.53 627.72 431.42"/><polygon class="cls-38" points="627.72 382.53 585.38 406.98 543.04 382.53 585.38 358.08 627.72 382.53"/><polygon class="cls-39" points="543.04 431.42 585.38 455.87 585.38 406.98 543.04 382.53 543.04 431.42"/><g class="cls-29"><polygon class="cls-30" points="612.09 394.13 625.78 386.22 625.78 392.9 612.09 400.8 612.09 394.13"/><polygon class="cls-31" points="624.11 388.82 624.56 388.56 624.56 391.97 624.11 392.23 624.11 388.82"/><polygon class="cls-31" points="622.82 389.57 623.61 389.11 623.61 392.52 622.82 392.98 622.82 389.57"/><polygon class="cls-31" points="621.81 390.15 622.6 389.7 622.6 393.1 621.81 393.56 621.81 390.15"/><polygon class="cls-31" points="620.73 390.77 621.18 390.51 621.18 393.92 620.73 394.18 620.73 390.77"/><polygon class="cls-31" points="617.16 392.84 617.61 392.57 617.61 395.98 617.16 396.24 617.16 392.84"/><polygon class="cls-31" points="615.73 393.66 616.18 393.4 616.18 396.81 615.73 397.07 615.73 393.66"/><polygon class="cls-31" points="619.44 391.52 620.23 391.06 620.23 394.47 619.44 394.93 619.44 391.52"/><polygon class="cls-31" points="618.43 392.1 619.22 391.65 619.22 395.05 618.43 395.51 618.43 392.1"/><polygon class="cls-31" points="614.28 394.5 615.07 394.05 615.07 397.45 614.28 397.91 614.28 394.5"/><polygon class="cls-31" points="613.31 395.06 613.86 394.74 613.86 398.15 613.31 398.46 613.31 395.06"/></g><polygon class="cls-32" points="577.63 382.53 585.38 378.05 602.68 368.07 610.43 372.54 593.14 382.53 585.38 387.01 568.09 396.99 560.34 392.52 577.63 382.53"/><polygon class="cls-33" points="560.34 441.41 560.34 392.51 568.09 396.99 568.09 445.88 560.34 441.41"/><path class="cls-10" d="M565.09,380.19c-1.82-.39-5-2-5.41-3.83a29,29,0,0,1-.72-4.2,83.07,83.07,0,0,1,.77-15.15l14.82.76s-.13,5.5,1,8.26c.72,1.81,16.88,10.3,26.45,13.93.85.32.93.88.93,3.07,0,.27-3.16,1.76-5.82,2.15a34.07,34.07,0,0,1-9.76,0Z"/><path class="cls-11" d="M556.52,361.35s7.24,4.26,19.9-2.17l2-86.41a11.89,11.89,0,0,0-1.55-6.14l-34.1-68.91-35-12-6.27,15.43c-5.87,16.72,1,30.79,14,42.86C531.87,259.35,549.27,276,549.27,276Z"/><path class="cls-40" d="M500.47,204.39c.07-.27.14-.53.22-.8.22-.78.46-1.56.74-2.35l0-.06,2.09-5.14,1.36-3.35,2.82-6.94,4.18,1.42c-3.4,11.32-9.2,37.44,6.37,46.34,20.09,11.48,39,40.41,39,40.41l3.4,88.63-.59-.08a11.76,11.76,0,0,1-3.59-1.12h0L549.27,276h0S531.86,259.35,515.44,244h0a.83.83,0,0,0-.33-.31C503.2,232.51,496.53,219.57,500.47,204.39Z"/><path class="cls-10" d="M498.74,420.47s-1.67,16.1-1.91,23.25c-.17,5.28,6,11.29,13.22,11.73a32.84,32.84,0,0,0,3.94-.09c2.63,0,3.82-3.3,2.63-10.21-1.06-6.12-4.12-26.28-4.47-26.46Z"/><path class="cls-11" d="M537.33,202.06s-25-18.62-33.36-8.58c-6.87,8.29-13.74,24.4-13.66,39.85A317.54,317.54,0,0,0,492,272.41c3,27.35,4.9,51.27,3.48,59.8-2,12-3.95,24.62-1.89,47.14,1.53,16.76,4.66,41.73,4.73,43.34,2.23.64,3.6,3,10,1.89,4-.71,4.42-2.46,5.21-2.6.33-12.78,2.1-44,4.74-71.53.35-3.64,2.37-10.27,3.16-20.53C522.48,315.05,537.33,202.06,537.33,202.06Z"/><path class="cls-40" d="M504.67,424.77c-1-5-5.11-58.31-3.55-69.58s4.27-5.21,4.27-14.93c-1.2-8.64-1.82-47.76-3.95-72.55-1.79-20.89.31-61.14,10.18-78.24l-.58.07a11.13,11.13,0,0,0-7.07,3.94c-6.87,8.29-13.74,24.4-13.66,39.85A317.54,317.54,0,0,0,492,272.41c3,27.35,4.9,51.27,3.48,59.8-2,12-3.95,24.62-1.89,47.14,1.53,16.76,4.66,41.73,4.73,43.34a2.48,2.48,0,0,1,.48.17C500.42,423.49,501.77,424.74,504.67,424.77Z"/><path class="cls-41" d="M460,35.34a5.27,5.27,0,0,1-.18-.71c-.12-.55.56-1.53.76-2q.51-1.31.93-2.64a37.62,37.62,0,0,0,1.19-5.12c.4-2.46.73-3.32-.38-5.67a.67.67,0,0,0-.25-.29h0a4.17,4.17,0,0,0-3.3-1c-.75-1.17-.8-4.15-2.69-4.92-4.61-1.87-13,1.14-13.52,5.34-.65,5.78,2.11,10,4.19,15.32a23,23,0,0,0,2,4.21s11.81,44.67,38.33,96L491,122.09S465.07,68.07,460,35.34Z"/><path class="cls-41" d="M565,23.09a5.51,5.51,0,0,0,.07-.71c0-.54-.8-1.37-1.08-1.81-.48-.78-.92-1.57-1.34-2.38a36.32,36.32,0,0,1-2-4.68c-.78-2.27-1.24-3-.52-5.44a.48.48,0,0,1,.2-.31h0a4.15,4.15,0,0,1,3.09-1.47c.55-1.23.14-4.07,1.88-5.09,4.25-2.48,13.05-.91,14.19,3C581,9.59,579,14,577.77,19.39a20.9,20.9,0,0,1-1.32,4.31s-1.53,4.14-4.16,11.38c-6,16.47-14.11,32.56-8.52.86A72.65,72.65,0,0,0,565,23.09Z"/><path class="cls-42" d="M546.83,138.38c5.19-16.19,19-46.07,23.52-55.57a20.73,20.73,0,0,0,1.83-6.3l5.08-48.13c-11.12-4.89-13.21-2.06-13.21-2.06-.64,6.31-4.53,34.61-6.37,44.28-.63,3.3-3.76,9.22-3.76,9.22L535.5,111.51s-3.31,4.12-6,3.81c-8.32-1-25.85-2-35.83,3.72-.1-.43-.2-.85-.32-1.28,0,0-27.31-58.15-31.94-79.25,0,0-2.53-2.57-12.69,4.22,0,0,11.83,52.07,32.43,96.15a27.51,27.51,0,0,0,3,6.31l.33.68.07-.06c.85,1.25,1.47,2,1.47,2s13.3,21.1,15.9,31c1,3.69.69,10.55-2.16,17.31-.46,1.5-1.38,2.07,2.1,4.77,4.92,3.81,13.36,7.31,25.83,4.24,6.56-1.62,9.94-2.28,13.5-4.75,2.3-1.84,3-2.58,2.42-5.06-1.27-5.64-2.77-16.06-2.77-20.83,0-4.94.84-8.29,3.3-11.31,5-6.07,7.4-9.32,3.56-21.38C547.51,140.91,547.18,139.74,546.83,138.38Z"/><path d="M507.87,94.82c18.75,47.45-5,23.28-8.72,17.21-4.2-6.91-7.94-8.39-9.41-13.5-3.42-11.79-2.19-19.85,2.59-29.7,3.64-7.48,10.54-13.91,19.16-14.53Z"/><path d="M505.84,59.91s1.35,40.45,13.8,40.67c3.82.06,4.05-1,5.78-2.28,5.23-3.77,11.79-8.09,11.29-15.09-.36-5-.35-4.36,1.3-10.93,1.53-6.11-1.31-9.85-5.48-12.92-5-3.7-14.79-5.07-18.82-4.16C505.81,57,505.84,59.91,505.84,59.91Z"/><path class="cls-41" d="M508,117.69s3.61-9.19,2.67-17c-.83-6.87-1-9.22-1-9.22l17.08,5.28s.38,14.07.85,18.34c.1.93,2.24,2.34,1.09,6.36C528.4,122.18,518.51,131,508,117.69Z"/><path class="cls-43" d="M510.62,100.66c0,.14,0,.27,0,.41a23.86,23.86,0,0,0,2.15,2.23c5.39,4.81,13,5.53,14.22,4.23-.3-5.75-.35-10.81-.35-10.81L509.6,91.44S509.79,93.79,510.62,100.66Z"/><path class="cls-41" d="M519.45,58.52c11.79-2.79,14.29,6.64,16,14.58.33,1.56-.52,4.09-.22,5.28.35,1.43,2,1.76,2.11,7.89a68.62,68.62,0,0,1-1.92,15.23c-.71,2.47-.78,3.1-2.26,3.8-3.78,1.78-10.35,1.46-18.52-4.08-7.24-4.94-10.78-15.19-11.15-16.15l1-16.1S513.17,60,519.45,58.52Z"/><path class="cls-44" d="M512.72,61.85a1.19,1.19,0,0,0,.27-.19C513.13,61.45,513,61.53,512.72,61.85Z"/><path class="cls-45" d="M514.61,101.22c6.44,4.38,11.89,5.49,15.76,4.89a23.25,23.25,0,0,1-9.58-5.8c-3.44-3.75-5.45-6.46-6.26-9.41-.88-3.22.12-2.66,2.25-5,4.82-5.27,4.6-13,8.69-18.36,1.63-2.12,4.42-2.76,5.66-3.38-.82-1.19-2.3-3.58-3.5-4.33-3,.94-12.08,3.19-19.82,5.41A42.94,42.94,0,0,0,504.49,69l-1,16.1C503.83,86,507.37,96.28,514.61,101.22Z"/><path d="M533.4,66.24c2.88.36,3-8.79-5.62-11.77-4.39-1.51-9.61-1.49-14-1a26.57,26.57,0,0,0-18.14,9.78,14,14,0,0,0-3,6c-3.6,20.35,21,46.69,19.94,41.72-3-13.85-2-20.49-2.37-22.82C507.57,69.63,524,65.08,533.4,66.24Z"/><path d="M522,70.23c-2.31,4-1.84,5.68-3.94,10.66-2.84,6.75-5.64,6.19-8.64,6.69s-16.32.93-11.91-16.6c1.88-7.53,29.73-12.53,32.51-6.5C530.12,64.74,526.09,63.21,522,70.23Z"/><path d="M508.67,92.63c26.9,53.24-22.84,50.08-17.32,31.37,3-10.14-3.22-30.23-3.52-35.54"/><path class="cls-41" d="M510.36,86.67s-4.22-3.51-7.47-1.51c-2,1.23-1.23,4.42,1.07,7.19,5.26,6.36,7.36,3.85,7.36,3.85l-.39-8.86Z"/><path class="cls-45" d="M510.36,86.67s-4.22-3.51-7.47-1.51c-2,1.23-1.23,4.42,1.07,7.19,5.26,6.36,7.36,3.85,7.36,3.85l-.39-8.86Z"/><path class="cls-46" d="M513.19,199.31c2.26-10.19-1.32-24.91,2.79-25.74a18.16,18.16,0,0,0,11-7.4s-18.64,6.58-23.57-6.3c-9.4-24.53-10-20-11-21.32l-14.56-26.8a78.88,78.88,0,0,1-5.19-11.7L451.92,40.77c-1,.55-2,1.19-3.16,2,0,0,9.05,39.83,25.1,79.32L484,144.86l.08.13c.25.4.49.76.71,1.08l0,0c.37.53.68,1,.91,1.24l0,0,.16.21,0,0,.1.12,0,0,0,.05s1.16,1.83,2.84,4.65l.9,1.51c1,1.67,2.1,3.59,3.24,5.62l1.37,2.49c3.23,5.91,6.41,12.38,7.55,16.7a14.79,14.79,0,0,1,.41,2.39,25.93,25.93,0,0,1-.06,5.11,34.44,34.44,0,0,1-2.51,9.81,5.24,5.24,0,0,0-.46,1.69,2,2,0,0,0,.44,1.08,3.38,3.38,0,0,0,.26.33,8.8,8.8,0,0,0,.75.75c.31.28.68.58,1.11.92a26.45,26.45,0,0,0,15,5.36C514.39,205.33,512.26,203.51,513.19,199.31Z"/><path class="cls-2" d="M201.12,992c-40,4.47-15.63,9.25-14.38,13.73,2.08,7.48-18,10.44-32.64,9.55-40.14-2.45-55-12.87-55-27.84S124.22,961,164.4,962.27c33.68,1.05,60,10.3,61.34,15.07C227.52,983.5,220.35,989.81,201.12,992Z"/><path class="cls-10" d="M152.24,975c-1.82-.39-5-2-5.41-3.83a29.29,29.29,0,0,1-.73-4.2,83.65,83.65,0,0,1,.78-15.15l14.82.76s-.13,5.5,1,8.26c.72,1.81,16.87,10.3,26.44,13.93.86.32.94.88.94,3.07,0,.27-3.16,1.76-5.82,2.15a33.71,33.71,0,0,1-9.76,0Z"/><path class="cls-10" d="M121.13,967.43s-1.67,16.09-1.91,23.24c-.17,5.28,6,11.3,13.22,11.73a34.13,34.13,0,0,0,3.95-.08c2.62,0,3.81-3.3,2.62-10.22-1-6.11-4.11-26.28-4.47-26.46Z"/><path class="cls-11" d="M161.36,732.11S150,740.5,139.07,767.33a252.48,252.48,0,0,0,1.65,34.18c3,27.35,3.95,55.47,2.53,64-2,12-5.37,21.69-3.31,44.21,1.53,16.76,5.61,44.49,5.68,46.1,2.23.65,3,1.9,9.47,1.9,2.53,0,6.56-1.1,7-2.29.33-12.77.13-43.09,2.77-70.66.35-3.64,2-9.86,2.52-17,4.16-58.35,5.13-90.57.63-111.65A211.77,211.77,0,0,0,161.36,732.11Z"/><path class="cls-40" d="M139.07,767.33a252.48,252.48,0,0,0,1.65,34.18c3,27.35,3.95,55.47,2.53,64-2,12-5.37,21.69-3.31,44.21,1.53,16.76,5.61,44.49,5.68,46.1,1.66.48,2.53,1.29,5.51,1.68-1.16-10.81-3.8-57.24-2.35-67.67,1.58-11.38,3.47-9.24,3.47-19-1.19-8.65,1.11-69.33-3.15-78.34-6.17-13-1.58-30.61,2.12-48A114.22,114.22,0,0,0,139.07,767.33Z"/><path class="cls-11" d="M152.18,741.85s-17.5-11.46-25.82-1.41c-6.87,8.28-13.74,24.39-13.66,39.85a316.29,316.29,0,0,0,1.66,39.07c3,27.36,4.89,51.28,3.47,59.8-2,12-4,24.62-1.89,47.14,1.53,16.76,4.66,41.73,4.73,43.34,2.23.64,3.61,3,10,1.9,4-.72,4.42-2.47,5.21-2.61.33-12.77,2.1-43.95,4.74-71.53.35-3.64,2.37-10.26,3.16-20.52C144.87,862,152.18,741.85,152.18,741.85Z"/><path class="cls-40" d="M127.06,971.72c-1-5-5.11-58.31-3.54-69.58s4.26-5.21,4.26-14.92c-1.19-8.65-1.82-47.77-4-72.56-1.79-20.89.31-61.14,10.18-78.24l-.58.08a11,11,0,0,0-7.07,3.94c-6.87,8.28-13.74,24.39-13.66,39.85a316.29,316.29,0,0,0,1.66,39.07c3,27.36,4.89,51.28,3.47,59.8-2,12-4,24.62-1.89,47.14,1.53,16.76,4.66,41.73,4.73,43.34.17.05.33.11.48.17C122.81,970.44,124.17,971.7,127.06,971.72Z"/><path class="cls-34" d="M166.15,680.11l21,44.19L215,749.41s-.88,10-2.44,9.5C203,756,185,740,185,740c-5.5-1.81-8.44-2.14-10.25-6.12l-23.81-48.12c-2.54-5.61-3.09-11.24,2.81-13C158.92,671.19,164.33,675,166.15,680.11Z"/><path class="cls-35" d="M182.75,732.14,212.9,758.8a.39.39,0,0,1-.37.11C203,756,185,740,185,740c-5.5-1.81-8.44-2.14-10.25-6.12l-12.42-25.12,3.57-4.23Z"/><path class="cls-47" d="M172.3,687.28c-1.19-3.74-1.86-7.48-3.56-13.37C166.17,665,148.53,661.2,140.6,660c.27.45-7.8-1.35-8.73-.8-1.71,1-11.41,4.61-17.43,9.16,4.21,4.87,7,14.88,3.46,19.52-2.79,3.62-6.09,8.19-9.42,12.94C113,708.57,120,721,121.83,728.08c1.07,4.07.75,11.63-2.39,19.09-.5,1.65-1.52,2.28,2.32,5.25,5.43,4.2,14.73,8.06,28.48,4.68,7.23-1.78,11-2.51,14.88-5.24,2.54-2,3.28-2.84,2.67-5.58-1.4-6.22-3-17.7-3-23,0-5.44.92-9.13,3.63-12.46C173.86,704.15,176.54,700.57,172.3,687.28Z"/><path class="cls-48" d="M141.82,603.88s-10.17,38.35,1.46,42.08c3.56,1.14,4.1.18,6.07-.51,6-2.06,13.35-4.26,14.86-11,1.07-4.75.91-4.19,4.31-9.9,3.17-5.29,1.55-9.61-1.5-13.67-3.66-4.89-12.44-8.94-16.48-9.22C142.62,601.13,141.82,603.88,141.82,603.88Z"/><path class="cls-34" d="M129.14,663.07a4.14,4.14,0,0,1-.06-3.74c1.52-3.12,4.71-10.11,5.7-15.84,1.17-6.68,1.66-8.94,1.66-8.94L151,644.33s-3.62,13.31-4.39,17.46c-.16.89,1.44,2.82-.77,6.28C145.43,668.67,133.57,671.35,129.14,663.07Z"/><path class="cls-49" d="M134.78,643.49c0,.13-.05.26-.07.39a23.84,23.84,0,0,0,1.39,2.71c3.7,6,10.67,8.87,12.15,8,1.35-5.48,2.73-10.25,2.73-10.25l-14.54-9.78S136,636.81,134.78,643.49Z"/><path class="cls-34" d="M155,606.43c11.85.71,11.54,10.27,10.87,18.19-.13,1.56-1.65,3.7-1.7,4.9-.08,1.44,1.41,2.23-.25,8a67.46,67.46,0,0,1-6.1,13.76c-1.37,2.12-1.61,2.69-3.21,2.93-4,.6-10.12-1.56-16.22-9.07-5.41-6.68-5.83-17.3-5.91-18.31L138,612S148.67,606.05,155,606.43Z"/><path class="cls-44" d="M147.72,607.64a1,1,0,0,0,.32-.1C148.22,607.39,148.06,607.42,147.72,607.64Z"/><path class="cls-50" d="M138.38,645.14c4.81,5.93,9.61,8.51,13.41,9.05a22.75,22.75,0,0,1-7.35-8.16c-2.17-4.49-3.29-7.6-3.22-10.6.08-3.27.86-2.47,3.52-4,6-3.59,8-11,13.35-14.79,2.13-1.52,4.93-1.33,6.27-1.57-.44-1.35-1.15-4-2.07-5-3.07,0-12.24-.42-20.13-.53A43.6,43.6,0,0,0,138,612l-5.52,14.82C132.55,627.84,133,638.46,138.38,645.14Z"/><path class="cls-48" d="M165.81,616c2.6,1.15,5.61-8.07-1.64-13.31-8.09-5.83-14.14-3.48-22.27-3.54a17.06,17.06,0,0,0-15.07,9.76c-9.14,18.09,3.43,36.23,8,34.26.3-.12,2.8-9.26,3.14-11.55C140.69,613.5,157.33,612.23,165.81,616Z"/><path class="cls-48" d="M154.06,618.14c-3.3,3.08-3.33,4.81-6.71,8.89-4.58,5.53-7.2,5.25-10.15,4.88s-15.43-4.78-6.35-20c3.9-6.54,31.46-3.36,32.36,3.09C163.25,615.28,159.89,612.71,154.06,618.14Z"/><path class="cls-34" d="M138.5,630.29s-3-4.49-6.59-3.53c-2.21.59-2.4,3.8-1,7,3.14,7.45,5.83,5.69,5.83,5.69l2.14-8.42Z"/><path class="cls-50" d="M138.5,630.29s-3-4.49-6.59-3.53c-2.21.59-2.4,3.8-1,7,3.14,7.45,5.83,5.69,5.83,5.69l2.14-8.42Z"/><path class="cls-51" d="M126.76,610.94a11.08,11.08,0,0,0-4.4-.38c-3,.35-6.54,1.93-7.93,4.72-2.75,5.5-.8,8.38-.8,8.38s-.35,7.05-10,8.37c0,0,1.83,4,9.47.45,0,0-3.12,6.22-14.81,1.89,0,0-.12,6.1,7,9.4,5.8,2.71,13.3-2.77,17.07-6.84s5.05-7.87,3.9-13.19c-1-4.49-.72-9.22,4.29-11-.26.09-2.81-1.51-3.4-1.7Z"/><polygon class="cls-52" points="215.94 784.98 179.46 806.04 179.46 763.92 215.94 742.87 215.94 784.98"/><polygon class="cls-53" points="215.94 742.86 179.46 763.92 142.98 742.87 179.46 721.81 215.94 742.86"/><polygon class="cls-54" points="142.98 784.98 179.46 806.04 179.46 763.92 142.98 742.87 142.98 784.98"/><g class="cls-29"><polygon class="cls-30" points="202.47 752.85 214.26 746.05 214.26 751.8 202.47 758.61 202.47 752.85"/><polygon class="cls-31" points="212.82 748.29 213.21 748.06 213.21 751 212.82 751.22 212.82 748.29"/><polygon class="cls-31" points="211.71 748.93 212.39 748.54 212.39 751.47 211.71 751.86 211.71 748.93"/><polygon class="cls-31" points="210.84 749.43 211.52 749.04 211.52 751.97 210.84 752.37 210.84 749.43"/><polygon class="cls-31" points="209.91 749.97 210.3 749.74 210.3 752.68 209.91 752.9 209.91 749.97"/><polygon class="cls-31" points="206.83 751.74 207.22 751.52 207.22 754.45 206.83 754.68 206.83 751.74"/><polygon class="cls-31" points="205.6 752.46 205.99 752.23 205.99 755.16 205.6 755.39 205.6 752.46"/><polygon class="cls-31" points="208.8 750.61 209.48 750.22 209.48 753.15 208.8 753.54 208.8 750.61"/><polygon class="cls-31" points="207.93 751.11 208.61 750.72 208.61 753.65 207.93 754.04 207.93 751.11"/><polygon class="cls-31" points="204.35 753.18 205.03 752.78 205.03 755.72 204.35 756.11 204.35 753.18"/><polygon class="cls-31" points="203.52 753.66 203.99 753.38 203.99 756.32 203.52 756.59 203.52 753.66"/></g><polygon class="cls-32" points="172.78 742.87 179.46 739.01 194.36 730.41 201.04 734.26 186.14 742.87 179.46 746.72 164.56 755.32 157.88 751.47 172.78 742.87"/><polygon class="cls-33" points="157.88 793.59 157.88 751.46 164.56 755.32 164.56 797.44 157.88 793.59"/><path class="cls-34" d="M127.15,680.39l-5.8,43.93,32.18,45L166.05,775a6.84,6.84,0,0,1,3.39,9.06h0a6.84,6.84,0,0,1-9.7,3.06L147,778.53a17.24,17.24,0,0,1-4.59-4.58h0a7.2,7.2,0,0,0-2.06-4.3c-7.06-7-28.89-31.33-28.89-31.33-4-4.19-6.44-5.87-6.16-10.23l1.62-49.85a10.18,10.18,0,0,1,12.16-9.33h0A10.18,10.18,0,0,1,127.15,680.39Z"/><path class="cls-35" d="M112.9,673l4.14-4.3a10.18,10.18,0,0,0-10.12,9.52l-1.62,49.85c-.28,4.36,2.16,6,6.16,10.23,0,0,21.83,24.28,28.89,31.33a7.2,7.2,0,0,1,2.06,4.3,17.24,17.24,0,0,0,4.59,4.58l12.74,8.61a6.79,6.79,0,0,0,4.7.83l-53.53-60.39Z"/><path class="cls-55" d="M103.21,708.2l3-30.92c.4-6.14,6.86-10.3,12.9-9.09h0c5.32,1.07,9.65,6.3,8.86,11.67l-3.88,29.95C120.76,712.82,106,711.71,103.21,708.2Z"/></g></g></g></svg>