<?xml version="1.0" encoding="utf-8"?>
<!-- Generator: Adobe Illustrator 25.2.1, SVG Export Plug-In . SVG Version: 6.00 Build 0)  -->
<svg version="1.1" id="Layer_1" xmlns="http://www.w3.org/2000/svg" xmlns:xlink="http://www.w3.org/1999/xlink" x="0px" y="0px"
	 viewBox="0 0 698.5 608.4" style="enable-background:new 0 0 698.5 608.4;" xml:space="preserve">
<style type="text/css">
	.st0{opacity:6.000000e-02;enable-background:new    ;}
	.st1{clip-path:url(#SVGID_2_);}
	.st2{opacity:0.6;}
	.st3{fill:url(#SVGID_3_);}
	.st4{fill:#F48020;stroke:#FFFFFF;stroke-width:6.4284;stroke-miterlimit:10;}
	.st5{opacity:0.2;}
	.st6{fill:url(#SVGID_4_);}
	.st7{fill:#F48020;stroke:#FFFFFF;stroke-width:5.9129;stroke-miterlimit:10;}
	.st8{fill:url(#SVGID_5_);}
	.st9{fill:url(#SVGID_6_);}
	.st10{fill:#F48020;stroke:#FFFFFF;stroke-width:4.3251;stroke-miterlimit:10;}
	.st11{fill:url(#SVGID_7_);}
	.st12{fill:#F48020;stroke:#FFFFFF;stroke-width:4.6602;stroke-miterlimit:10;}
	.st13{fill:#F48020;stroke:#FFFFFF;stroke-width:2.892;stroke-miterlimit:10;}
	.st14{fill:#F38020;}
	.st15{fill:url(#SVGID_8_);}
	.st16{fill:#545454;}
	.st17{fill:#969696;}
	.st18{opacity:0.2;enable-background:new    ;}
	.st19{fill:url(#SVGID_9_);}
	.st20{opacity:0.2;fill:#754C24;enable-background:new    ;}
	.st21{fill:#724129;}
	.st22{fill:#878787;}
	.st23{fill-rule:evenodd;clip-rule:evenodd;fill:#724129;}
	.st24{fill:#3A3A3A;}
	.st25{fill:url(#SVGID_10_);}
	.st26{fill:url(#SVGID_11_);}
	.st27{fill:url(#SVGID_12_);}
	.st28{fill:none;stroke:#969696;stroke-width:15.3313;stroke-miterlimit:10;}
	.st29{fill:#C2C2C2;}
	.st30{fill:#D09D80;}
	.st31{fill-rule:evenodd;clip-rule:evenodd;}
	.st32{fill:url(#SVGID_13_);}
	.st33{fill:#D76E1E;}
	.st34{fill:url(#SVGID_14_);}
	.st35{fill:url(#SVGID_15_);}
	.st36{fill:#CCCCCC;}
</style>
<g>
	<ellipse class="st0" cx="147.9" cy="335" rx="120.7" ry="11"/>
	<g>
		<defs>
			<rect id="SVGID_1_" x="25" width="636.7" height="607.1"/>
		</defs>
		<clipPath id="SVGID_2_">
			<use xlink:href="#SVGID_1_"  style="overflow:visible;"/>
		</clipPath>
		<g class="st1">
			<g class="st2">
				
					<linearGradient id="SVGID_3_" gradientUnits="userSpaceOnUse" x1="363.0281" y1="293.9377" x2="250.2807" y2="293.9377" gradientTransform="matrix(1 0 0 -1 0 608)">
					<stop  offset="0" style="stop-color:#878787"/>
					<stop  offset="0.37" style="stop-color:#C2C2C2"/>
					<stop  offset="1" style="stop-color:#D8D8D8;stop-opacity:0.2"/>
				</linearGradient>
				<path class="st3" d="M348.7,329.5h-42.1c-6.6,0-12.6-4.2-14.8-10.4c-0.5-1.3-0.8-2.6-0.9-4h-0.1v-0.8c0-0.3,0-0.6,0-0.9
					c-0.2-6.7-5.8-11.9-12.9-11.9h-42v-2.9H278c8.6,0,15.4,6.3,15.7,14.6l0,0v1c0.1,1.3,0.3,2.6,0.8,3.9c1.9,5.1,6.7,8.5,12.1,8.5
					h42.1L348.7,329.5z"/>
			</g>
			<circle class="st4" cx="627.7" cy="71.6" r="13.9"/>
			<g class="st5">
				
					<linearGradient id="SVGID_4_" gradientUnits="userSpaceOnUse" x1="616.0457" y1="497.1257" x2="365.4506" y2="502.8788" gradientTransform="matrix(1 0 0 -1 0 608)">
					<stop  offset="0" style="stop-color:#878787"/>
					<stop  offset="0.26" style="stop-color:#878787"/>
					<stop  offset="0.5" style="stop-color:#878787"/>
					<stop  offset="0.73" style="stop-color:#C2C2C2"/>
					<stop  offset="1" style="stop-color:#D8D8D8;stop-opacity:0.2"/>
				</linearGradient>
				<path class="st6" d="M451.9,147.3h-93.5v-6.4h93.5c15.8,0,28.6-12.8,28.6-28.6v-8.8c0-19.4,15.7-35,35.1-35h93.5v6.4h-93.5
					c-15.8,0-28.6,12.8-28.6,28.6v8.8C487,131.6,471.3,147.2,451.9,147.3z"/>
			</g>
			<circle class="st7" cx="288.3" cy="469.7" r="12.8"/>
			<g class="st2">
				
					<linearGradient id="SVGID_5_" gradientUnits="userSpaceOnUse" x1="300.5017" y1="166.8591" x2="69.8311" y2="166.8591" gradientTransform="matrix(1 0 0 -1 0 608)">
					<stop  offset="0" style="stop-color:#878787"/>
					<stop  offset="0.54" style="stop-color:#C2C2C2"/>
					<stop  offset="1" style="stop-color:#D8D8D8;stop-opacity:0.2"/>
				</linearGradient>
				<path class="st8" d="M271.1,472.7h-86c-13.6,0-25.7-8.5-30.3-21.3c-0.9-2.6-1.5-5.4-1.8-8.1h-0.1v-1.6c0-0.6,0-1.2,0-1.8
					c-0.5-13.7-11.9-24.3-26.3-24.3H40.5v-5.9h86.1c17.6,0,31.5,13,32.2,29.8l0,0v2.1c0.6,14.1,12.2,25.3,26.3,25.3h86.1V472.7z"/>
			</g>
			<g class="st2">
				
					<linearGradient id="SVGID_6_" gradientUnits="userSpaceOnUse" x1="563.2474" y1="408.4843" x2="440.298" y2="408.4843" gradientTransform="matrix(1 0 0 -1 0 608)">
					<stop  offset="0" style="stop-color:#878787"/>
					<stop  offset="0.53" style="stop-color:#C2C2C2"/>
					<stop  offset="1" style="stop-color:#D8D8D8;stop-opacity:0.2"/>
				</linearGradient>
				<rect x="442.2" y="197.4" class="st9" width="122.9" height="4.3"/>
			</g>
			<circle class="st10" cx="569.4" cy="199.5" r="9.3"/>
			<g class="st2">
				
					<linearGradient id="SVGID_7_" gradientUnits="userSpaceOnUse" x1="399.0778" y1="69.5487" x2="266.5656" y2="69.5487" gradientTransform="matrix(1 0 0 -1 0 608)">
					<stop  offset="0" style="stop-color:#878787"/>
					<stop  offset="0.53" style="stop-color:#C2C2C2"/>
					<stop  offset="1" style="stop-color:#D8D8D8;stop-opacity:0.2"/>
				</linearGradient>
				<rect x="268.6" y="536.1" class="st11" width="132.5" height="4.7"/>
			</g>
			<circle class="st12" cx="405.7" cy="538.5" r="10.1"/>
			<circle class="st13" cx="352.2" cy="328" r="6.2"/>
			<path class="st14" d="M219.3,125.5c0,49,50.7,60,83.5,83.7l4.5-17l-58.5-50.1L236.7,120"/>
			
				<linearGradient id="SVGID_8_" gradientUnits="userSpaceOnUse" x1="0" y1="461.8088" x2="206.4519" y2="461.8088" gradientTransform="matrix(1 0 0 -1 0 608)">
				<stop  offset="0.25" style="stop-color:#FFFFFF"/>
				<stop  offset="0.74" style="stop-color:#969696"/>
			</linearGradient>
			<path class="st15" d="M206.3,189.3c-19.7-0.3-44.8-4-52.3-20.3c-5.4-11.7,4.9-19.7,11-24.5c1.9-1.5,5-3.9,6-5.4
				c-0.5-0.7-1.1-1.3-1.7-1.8C151,121.4,60.8,119.7,22.3,119c-9.6-0.2-17.2-0.3-22.3-0.6l0.8-15.3c4.9,0.2,12.4,0.4,21.9,0.6
				c64.9,1.2,135.9,4,156.7,22.1c4.9,4.2,7.3,8.9,7.2,13.7c-0.2,7.8-6.5,12.7-12,17.1c-2.1,1.6-5.8,4.6-6.5,6
				c3.3,6.8,18,11.1,38.5,11.4L206.3,189.3z"/>
			
				<rect x="311.4" y="215.3" transform="matrix(0.5625 -0.8268 0.8268 0.5625 -44.7485 401.093)" class="st16" width="90.4" height="55"/>
			<polygon class="st17" points="206.9,150.9 223.3,147.2 303.2,197 294.2,210.3 			"/>
			<path class="st16" d="M311.5,260.3l-21.6-31c-2.7-3.8-2.7-8.9-0.1-12.7l17.3-25.4c2.6-3.9,7.3-5.7,11.9-4.6l36.8,8.7l0,0
				L311.5,260.3z"/>
			
				<rect x="347.5" y="223.1" transform="matrix(0.5625 -0.8268 0.8268 0.5625 -42.9891 407.2926)" class="st18" width="31.7" height="42.3"/>
			<path d="M223.4,124.9c0,0,13.8-29.8,24.1-28.2c0,0-4.2,9.1,0.2,18c3.8,7.8,1.7,17.4-4.1,23.6
				C236.1,138.4,230.1,128.3,223.4,124.9z"/>
			
				<linearGradient id="SVGID_9_" gradientUnits="userSpaceOnUse" x1="-2896.105" y1="11801.3525" x2="-2790.8118" y2="11801.3525" gradientTransform="matrix(-0.99 0.1 -0.1 -0.99 -1446.5743 12116.2754)">
				<stop  offset="0" style="stop-color:#FD7D0E"/>
				<stop  offset="0.5" style="stop-color:#FE8E17"/>
				<stop  offset="1" style="stop-color:#FFA423"/>
			</linearGradient>
			<path class="st19" d="M216.2,181.5c-12.2,4-25.5,10.6-32,18c-19.3-6.1-55.7-15-44.1-33.7c10.1-16.3,27.2-41.8,43-57
				c31.2-30.4,61.6-1.4,54.4,33.8c-2.1,9.9-6.9,22.8-16.9,37.4"/>
			<path class="st20" d="M198.9,188.3c0.5-0.3,1.1-0.5,1.6-0.7c5.2-2,10.4-3.9,15.6-6l0.3-0.1c-5.9-13.1-15.6-34.9-15.6-34.9
				C203.9,163.3,200.7,180.7,198.9,188.3z"/>
			<path class="st21" d="M274.2,90.9c-2.8-5.1,0.9-10.3,2.4-15.1c1.5-4.9,1.7-9.7-0.9-14.3c-7.2-12.7-32.3-15.4-39.9-2
				c-4,7-17.9,19.3-16.6,26.9c0.1,0.4,0,0.8-0.1,1.2l-7.2,18.3c-2.4,6.3,0.1,13.4,6,16.6l0.1,0c6.5,3.6,14.7,1.3,18.3-5.2
				c0.4-0.8,0.8-1.6,1.1-2.4c1.4-4.3,2.8-8.4,4.1-11.9c0.1-0.3,0.3-0.7,0.6-0.9c0.4-0.2,1-0.2,1.4,0.1c6.5,2.4,9.6,8,16.2,10
				c6.3,1.9,9.1-12.2,13.1-14.7c1.1-0.7,2.5,0.3,3.4-1.1C276.8,95.1,274.8,92,274.2,90.9z"/>
			<path class="st22" d="M304.4,264l50-73.4c2.5-3.7,7.6-4.7,11.3-2.1l0,0c3.7,2.5,4.7,7.6,2.1,11.3l-50,73.4
				c-2.5,3.7-7.6,4.7-11.3,2.1l0,0C302.8,272.8,301.9,267.7,304.4,264z"/>
			<polyline class="st23" points="86,294.9 63.3,293.4 62.7,277.5 82.4,276.7 			"/>
			<path d="M57.5,329.8c1.5-13.6,9.2-27.2,15.6-38.6c0.4-24.3-0.3-15.7-21.9-17.2c-2.1,0-3.9,1.8-3.9,3.9l0.5,51.6
				C48.2,334.4,57.9,334.5,57.5,329.8z"/>
			<polyline class="st23" points="199.7,297.7 179.6,319.5 167,309.8 179.1,294.2 			"/>
			<path d="M202.5,267.8c-15.1-40.9-17-83.4-57-109.7c-27.5,36.3-20.3,69.7,3.3,106.6c-28.2,4.5-57.9,11.3-69.8,9.7l0.8,22.7
				c20.2,3.3,91.2,4.2,122.6-4.6l-3-24.5L202.5,267.8z"/>
			<path class="st24" d="M217.7,330.1c-13.3-3.1-25.8-12.6-36.3-20.3c-23.5-3.4-16-1.9-19.8,19.5c-0.2,2.1,1.3,4,3.4,4.3l51.2,6.2
				C221.5,339.8,222,330.4,217.7,330.1z"/>
			<path class="st24" d="M284.1,229.4c-7.3-18.1-39.7-24.2-56.5-31.9c-28.9-9.2-59.8-18.6-81.7-40.8c-51.2,75,19.3,92,82.6,83.3
				c-23.1,16.9-47.5,43.3-55.4,60.4l23.9,4.9C197,305.4,277.9,253.9,284.1,229.4z"/>
			
				<linearGradient id="SVGID_10_" gradientUnits="userSpaceOnUse" x1="913.7186" y1="-616.1859" x2="995.7523" y2="-616.1859" gradientTransform="matrix(0.9745 -0.2244 -0.2244 -0.9745 -823.8916 -214.4235)">
				<stop  offset="0" style="stop-color:#FD7D0E"/>
				<stop  offset="0.5" style="stop-color:#FE8E17"/>
				<stop  offset="1" style="stop-color:#FFA423"/>
			</linearGradient>
			<path class="st25" d="M239.1,177.7c0,0-2.6-11.5-2.3-11.4l-7.3-51.1c-4.6-26.5-43.2-21-38.5,6.2c0,0,10.1,34.9,13.7,47.7
				c1.9,3.4,6.7,22.5,10.2,24.5c25.6,19.6,48.6,35,77.1,49.6l7.8-14.9L239.1,177.7z"/>
			<path d="M277.6,69.5c-2.7,1.8-4.3-0.7-6.8,1.5c-8.5,7.4-18.5,13.7-29.8,9.7c-4.5-13.7-19-4-8.8,9.1c4.4,81.2-44.9,40.7-37.4,33.4
				c8.2-8,8.8-19.3,9.3-30c0.8-15.8,6.1-31.1,18.5-41.5c9.4-7.9,22.6-12.4,34.6-8C265.6,46.8,279.5,60.8,277.6,69.5z"/>
			<path class="st21" d="M290.9,239.7c20.5,20.5,71,20.5,23.7-7.1c9-2.5,12.2-14.9-0.1-7.3C301.9,228,293.9,223.5,290.9,239.7z"/>
			
				<rect x="310.9" y="215.9" transform="matrix(0.5625 -0.8268 0.8268 0.5625 -45.4139 400.9012)" class="st16" width="90.4" height="55"/>
			<path class="st16" d="M311,260.9l-21.6-31c-2.7-3.8-2.7-8.9-0.1-12.7l17.3-25.4c2.6-3.8,7.3-5.7,11.9-4.6l36.8,8.7l0,0L311,260.9
				z"/>
			
				<rect x="347" y="223.7" transform="matrix(0.5625 -0.8268 0.8268 0.5625 -43.6549 407.1038)" class="st18" width="31.7" height="42.3"/>
			<path class="st22" d="M303.9,264.6l50-73.4c2.5-3.7,7.6-4.7,11.3-2.1l0,0c3.7,2.5,4.7,7.6,2.1,11.3l-50,73.4
				c-2.5,3.7-7.6,4.7-11.3,2.1l0,0C302.3,273.3,301.3,268.3,303.9,264.6z"/>
			
				<linearGradient id="SVGID_11_" gradientUnits="userSpaceOnUse" x1="914.5817" y1="-617.6057" x2="996.598" y2="-617.6057" gradientTransform="matrix(0.9745 -0.2244 -0.2244 -0.9745 -823.8916 -214.4235)">
				<stop  offset="0" style="stop-color:#FD7D0E"/>
				<stop  offset="0.5" style="stop-color:#FE8E17"/>
				<stop  offset="1" style="stop-color:#FFA423"/>
			</linearGradient>
			<path class="st26" d="M240.3,178.9c0,0-2.6-11.5-2.3-11.4l-7.3-51.1c-4.6-26.5-43.2-21-38.5,6.2c0,0,10.1,34.9,13.7,47.7
				c1.9,3.4,6.7,22.5,10.2,24.5c25.5,19.6,48.6,35,77.1,49.6l7.8-14.9L240.3,178.9z"/>
			<path class="st21" d="M292.1,240.9c20.5,20.5,71,20.5,23.7-7.1c9-2.5,12.2-14.9-0.1-7.3C303,229.2,295,224.7,292.1,240.9z"/>
			<path d="M277.6,69.5c-2.7,1.8-4.3-0.7-6.8,1.5c-8.5,7.4-18.5,13.7-29.8,9.7c-4.5-13.7-19-4-8.8,9.1c4.4,81.2-44.9,40.7-37.4,33.4
				c8.2-8,8.8-19.3,9.3-30c0.8-15.8,6.2-31.1,18.6-41.5c9.4-7.9,22.6-12.4,34.6-8C265.6,46.8,279.5,60.8,277.6,69.5z"/>
			
				<linearGradient id="SVGID_12_" gradientUnits="userSpaceOnUse" x1="370.7126" y1="-211.1573" x2="446.9154" y2="-211.1573" gradientTransform="matrix(-0.36 -0.93 0.93 -0.36 858.4186 668.1608)">
				<stop  offset="0" style="stop-color:#FD7D0E"/>
				<stop  offset="0.5" style="stop-color:#FE8E17"/>
				<stop  offset="1" style="stop-color:#FFA423"/>
			</linearGradient>
			<path class="st27" d="M551,391.5c0,0-43-16.9-78.6-36.4l10.1-18.8l68,18.6"/>
			<path class="st28" d="M503.3,347.5c396.5,338.2-387.6-138.5,190.1,382"/>
			<path class="st16" d="M455.2,363.9l34.1,10c4.2,1.2,8.7-0.2,11.4-3.7l17.5-23c2.7-3.5,2.9-8.2,0.6-12L500.2,305l0,0L455.2,363.9z
				"/>
			
				<rect x="413.6" y="287.9" transform="matrix(0.607 -0.7947 0.7947 0.607 -70.7925 481.7329)" class="st16" width="76.1" height="49.2"/>
			<path class="st29" d="M416.4,254.8l30,22.9l0,0l-6.9,9l0,0l-30-22.9c-2.1-1.6-2.5-4.7-0.9-6.8l0,0l1-1.3
				C411.1,253.6,414.2,253.2,416.4,254.8L416.4,254.8z"/>
			
				<rect x="432.5" y="272" transform="matrix(0.607 -0.7947 0.7947 0.607 -49.211 457.7516)" class="st22" width="11.4" height="13.2"/>
			<path class="st29" d="M393.7,284.5l30,22.9l0,0l-6.9,9l0,0l-30-22.9c-2.1-1.6-2.5-4.7-0.9-6.8l0,0l1-1.3
				C388.4,283.3,391.5,282.9,393.7,284.5C393.6,284.5,393.6,284.5,393.7,284.5L393.7,284.5z"/>
			
				<rect x="420.1" y="345.3" transform="matrix(0.4308 -0.9024 0.9024 0.4308 -75.2493 584.5406)" class="st22" width="11.4" height="13.2"/>
			<path class="st22" d="M443.7,361.4l50.8-66.5c2.6-3.4,7.4-4,10.7-1.4h0c3.4,2.6,4,7.4,1.4,10.7l-50.8,66.5
				c-2.6,3.4-7.4,4-10.7,1.4l0,0C441.8,369.5,441.1,364.7,443.7,361.4z"/>
			
				<rect x="438" y="285.8" transform="matrix(0.607 -0.7947 0.7947 0.607 -68.1452 481.6893)" class="st18" width="29.9" height="48"/>
			<path class="st30" d="M555.5,311.6c1.1-1.2,2.3-2.4,3.6-3.5c1.9-1.5,3.6-3.2,5.4-4.3c0.5-1,1-2.1,1.5-3.1
				c2.5-5.9,7.3-10.6,13.2-13c1.1-0.4,2.1-0.8,3.3-1c10.4-2.6,22.3,1.8,28.3,10.8c6.9,10.3,4.9,24.7-1,32.7
				c-3.8,5.2-6.3-0.8-14.7,10c4.1-7.6,0,0,0,0c-1.1,1.4-2.8,21-3.3,22.8c0,0-8.3,2.2-8.4,9.1c-4.8,1.7-8.7,1.4-12.4,1.1
				c-4.8-0.4-0.3,6.2-6.7,1.7c-9.9-6.9-0.6-32-0.3-32.4c-1.7-1.2-6.8-3.5-8.3-4.9c-1.2-1-2-2.4-2.3-3.9c-0.4-2.6,1.1-5.2,1.8-7.6
				c1-3,2.1-6,3.2-9c-0.8-0.6-1.6-1.3-2.4-2C554.8,314.1,554.7,312.7,555.5,311.6C555.5,311.7,555.5,311.7,555.5,311.6z"/>
			<path class="st31" d="M574.5,272.7c4.8,8.2,50.5,10.6,43.1,40.9c0.7,17.4-12.4,28.2-22.8,28.9c-0.8-3.7-1.4-7.1-1.9-10.3
				c4.3-1.3,6.7-5.8,5.3-10.1c-0.7-2.1-2.2-3.9-4.1-4.9c-1.7,1.7-3.6,3.5-5.3,5.4c-1.7-0.9-2.1-1.9-2.2-2.4
				c-0.1-1.3,0.4-2.4,2.8-6.3c0.7-1.4,1.4-2.7,2.3-4c0.4-4.3-0.1-8.1-9.3-11.7C564,290.8,567.9,281.6,574.5,272.7z"/>
			<path d="M592.7,501.1l-37.6,262.3c0,0-27.3-2.1-26.1-2.7l-4.2-266.4L592.7,501.1z"/>
			<path class="st24" d="M504.8,487.7c0,0-40.9,148.1-40.7,152.2c0,1.4,0.3,2.7,0.9,4l36.9,98.1l23.7-6.8L503.8,630l69.9-113.5
				L504.8,487.7z"/>
			
				<linearGradient id="SVGID_13_" gradientUnits="userSpaceOnUse" x1="8319.1885" y1="476.7298" x2="8428.3604" y2="476.7298" gradientTransform="matrix(-0.99 -0.12 0.12 -0.99 8803.6562 1913.7676)">
				<stop  offset="0" style="stop-color:#FFA423"/>
				<stop  offset="0.59" style="stop-color:#FE8A15"/>
				<stop  offset="1" style="stop-color:#FD7D0E"/>
			</linearGradient>
			<path class="st32" d="M519.2,357.7c10.7-5,17.5-5,29.2-4.8l4.7,0.1l28.1,3.3c21.2,4.6,31.7,9.3,39.5,19.1
				c9.2,11.6-24.7,95.7-24.7,95.7l-0.3,50.7l-97-15c1.3-13.2,8-77.6,9.6-82.3"/>
			<polygon class="st33" points="555.1,356.4 593.8,360.5 593.2,353 558,348.9 			"/>
			<path class="st20" d="M519.2,357.7L519.2,357.7c4.2,0.5,8.2,2.1,11.7,4.6c13.4,10,13.8,32.2,0.9,49.6
				c-6.6,8.9-15.5,14.8-24.4,17.1c0.2-1.5,0.5-3.1,0.9-4.6L519.2,357.7z"/>
			
				<linearGradient id="SVGID_14_" gradientUnits="userSpaceOnUse" x1="8396.8496" y1="507.1168" x2="8532.4189" y2="507.1168" gradientTransform="matrix(-0.99 -0.12 0.12 -0.99 8803.6562 1913.7676)">
				<stop  offset="0" style="stop-color:#FD7D0E"/>
				<stop  offset="1" style="stop-color:#FFA423"/>
			</linearGradient>
			<path class="st34" d="M431.3,343.8l26.8,48.7c0,0,59.9-34.6,60.4-34.8c20-9,32.5,19.6,22.4,34.4c-3,4.4-7.3,7.6-11.9,10.3
				c-12,6.8-66.8,28.3-81.2,33.5c-2.8,1.3-6,1.1-8.6-0.6L411,355.2L431.3,343.8z"/>
			<path class="st16" d="M455.3,364l34.1,10c4.2,1.2,8.7-0.2,11.4-3.7l17.5-23c2.7-3.5,2.9-8.2,0.6-12l-18.7-30.3l0,0L455.3,364z"/>
			
				<rect x="413.6" y="287.9" transform="matrix(0.607 -0.7947 0.7947 0.607 -70.8096 481.7924)" class="st16" width="76.1" height="49.2"/>
			<path class="st29" d="M416.4,254.8l30,22.9l0,0l-6.9,9l0,0l-30-22.9c-2.1-1.6-2.5-4.7-0.9-6.8l0,0l1-1.3
				C411.2,253.6,414.2,253.2,416.4,254.8C416.4,254.8,416.4,254.8,416.4,254.8L416.4,254.8z"/>
			<path class="st29" d="M393.7,284.6l30,22.9l0,0l-6.9,9l0,0l-30-22.9c-2.1-1.6-2.5-4.7-0.9-6.8l0,0l1-1.3
				C388.5,283.4,391.5,282.9,393.7,284.6L393.7,284.6z"/>
			
				<rect x="420.1" y="345.3" transform="matrix(0.4308 -0.9024 0.9024 0.4308 -75.2636 584.6082)" class="st22" width="11.4" height="13.2"/>
			<path class="st22" d="M443.7,361.4l50.8-66.5c2.6-3.4,7.4-4,10.7-1.4h0c3.4,2.6,4,7.4,1.4,10.7l-50.8,66.5
				c-2.6,3.4-7.4,4-10.7,1.4l0,0C441.8,369.6,441.2,364.8,443.7,361.4z"/>
			
				<rect x="438" y="285.8" transform="matrix(0.607 -0.7947 0.7947 0.607 -68.1653 481.7455)" class="st18" width="29.9" height="48"/>
			<path class="st30" d="M436.3,369.5c-5.1-17-7-20.3-2.9-39.9c5-8.3-8-3.3-6,2.7c-7.6-1.4-22.4-7.9-18.4-6.4
				c-46.2-29.6,16.4,32.8,12.9,50.3C421.6,376.1,431.2,383.5,436.3,369.5z"/>
			
				<linearGradient id="SVGID_15_" gradientUnits="userSpaceOnUse" x1="8396.793" y1="507.0722" x2="8532.3672" y2="507.0722" gradientTransform="matrix(-0.99 -0.12 0.12 -0.99 8803.6562 1913.7676)">
				<stop  offset="0" style="stop-color:#FD7D0E"/>
				<stop  offset="1" style="stop-color:#FFA423"/>
			</linearGradient>
			<path class="st35" d="M431.4,343.9l26.8,48.7c0,0,59.9-34.6,60.4-34.8c20-9,32.5,19.6,22.5,34.4c-3,4.4-7.3,7.6-11.9,10.3
				c-12,6.8-66.8,28.3-81.2,33.5c-2.8,1.3-6,1.1-8.6-0.6l-28.3-80.1L431.4,343.9z"/>
		</g>
	</g>
	<g id="freepik--Desk--inject-79">
		<path class="st36" d="M677.5,605.7c0,0.8-77.8,1.4-173.8,1.4S330,606.5,330,605.7s77.8-1.4,173.8-1.4S677.5,604.9,677.5,605.7z"/>
	</g>
</g>
</svg>
