<svg xmlns="http://www.w3.org/2000/svg" xmlns:xlink="http://www.w3.org/1999/xlink" viewBox="0 0 1024.65 815.83"><defs><style>.cls-1{opacity:0.05;}.cls-2{fill:#efefef;}.cls-3{fill:#fff;}.cls-4{fill:#e0e0e0;}.cls-5{fill:#263238;}.cls-20,.cls-6{fill:none;}.cls-7{fill:#f5f5f5;}.cls-8{fill:#ff725e;}.cls-9{fill:#e6e6e6;}.cls-10{fill:#fbe4db;}.cls-11,.cls-25{fill:#f38020;}.cls-12,.cls-22{fill:#3a3a3a;}.cls-12,.cls-13,.cls-15,.cls-24,.cls-25,.cls-27,.cls-28{fill-rule:evenodd;}.cls-14,.cls-15{fill:#f4ae3d;}.cls-16{fill:url(#linear-gradient);}.cls-17{fill:#754c24;opacity:0.2;}.cls-17,.cls-29{isolation:isolate;}.cls-18{fill:url(#linear-gradient-2);}.cls-19{fill:gray;}.cls-20{stroke:#4d4d4d;stroke-miterlimit:10;stroke-width:16.99px;}.cls-21{fill:#666;}.cls-23{fill:#031800;}.cls-24,.cls-26{fill:#905b3d;}.cls-27{fill:url(#linear-gradient-3);}.cls-28{fill:url(#linear-gradient-4);}.cls-29{opacity:0.03;}</style><linearGradient id="linear-gradient" x1="-3740.29" y1="412.71" x2="-3637.47" y2="412.71" gradientTransform="translate(4367.12 -7.75) rotate(-0.07)" gradientUnits="userSpaceOnUse"><stop offset="0" stop-color="#fd7d0e"/><stop offset="1" stop-color="#ffa423"/></linearGradient><linearGradient id="linear-gradient-2" x1="-6238.17" y1="769.82" x2="-6159.34" y2="769.82" gradientTransform="translate(6622.08 2165.51) rotate(23.95)" gradientUnits="userSpaceOnUse"><stop offset="0" stop-color="#ffa423"/><stop offset="1" stop-color="#fd7d0e"/></linearGradient><linearGradient id="linear-gradient-3" x1="228.7" y1="297.29" x2="346.77" y2="297.29" gradientTransform="translate(-33.78 65.13) rotate(4.57)" xlink:href="#linear-gradient"/><linearGradient id="linear-gradient-4" x1="1645.01" y1="3127.63" x2="1825.55" y2="3127.63" gradientTransform="translate(-2627.23 -1697.47) rotate(-25.94)" gradientUnits="userSpaceOnUse"><stop offset="0.48" stop-color="#fd7d0e"/><stop offset="0.83" stop-color="#fe961b"/><stop offset="1" stop-color="#ffa423"/></linearGradient></defs><g id="Layer_2" data-name="Layer 2"><g id="Layer_1-2" data-name="Layer 1"><g class="cls-1"><circle cx="247.08" cy="10.02" r="10.02"/><circle cx="247.08" cy="56.68" r="10.02"/><circle cx="247.08" cy="103.34" r="10.02"/><circle cx="247.08" cy="150" r="10.02"/></g><g class="cls-1"><circle cx="293.55" cy="10.02" r="10.02"/><circle cx="293.55" cy="56.68" r="10.02"/><circle cx="293.55" cy="103.34" r="10.02"/><circle cx="293.55" cy="150" r="10.02"/></g><g class="cls-1"><circle cx="340.03" cy="10.02" r="10.02"/><circle cx="340.03" cy="56.68" r="10.02"/><circle cx="340.03" cy="103.34" r="10.02"/><circle cx="340.03" cy="150" r="10.02"/></g><g class="cls-1"><circle cx="386.5" cy="10.02" r="10.02"/><circle cx="386.5" cy="56.68" r="10.02"/><circle cx="386.5" cy="103.34" r="10.02"/><circle cx="386.5" cy="150" r="10.02"/></g><g class="cls-1"><circle cx="432.97" cy="10.02" r="10.02"/><circle cx="432.97" cy="56.68" r="10.02"/><circle cx="432.97" cy="103.34" r="10.02"/><circle cx="432.97" cy="150" r="10.02"/></g><g class="cls-1"><circle cx="479.45" cy="10.02" r="10.02"/><circle cx="479.45" cy="56.68" r="10.02"/><circle cx="479.45" cy="103.34" r="10.02"/><circle cx="479.45" cy="150" r="10.02"/></g><path class="cls-2" d="M418,442.73H962.11a1.84,1.84,0,0,0,1.84-1.85h0V86.36a1.84,1.84,0,0,0-1.84-1.84H418a1.84,1.84,0,0,0-1.82,1.84V440.88A1.85,1.85,0,0,0,418,442.73Z"/><path class="cls-3" d="M449.23,118.66H932a2.57,2.57,0,0,1,2.57,2.57V408.48a2.49,2.49,0,0,1-2.52,2.45H449.23a2.58,2.58,0,0,1-2.56-2.58V121.1a2.46,2.46,0,0,1,2.5-2.44Z"/><path class="cls-4" d="M677.4,182.85l-68-30.39L543.29,178s-4.16,5,2.72,7.51c3.62,1.28,62.49-22.62,62.49-22.62s65.87,29.62,68.15,29.1S679,184.9,677.4,182.85Z"/><path class="cls-4" d="M742.33,164.51h.27a1,1,0,0,0,.75-1.26h0a15.78,15.78,0,0,1,.4-8.9,19.52,19.52,0,0,1,2.2-3.74,18.42,18.42,0,0,0,3.64-10.87v-.35a11.1,11.1,0,0,0-22.2,0v2.11a1,1,0,1,0,2.08,0v-2.08a9,9,0,0,1,18,0v.34a16.41,16.41,0,0,1-3.24,9.64,21.14,21.14,0,0,0-2.43,4.16,17.58,17.58,0,0,0-.5,10.23A1,1,0,0,0,742.33,164.51Z"/><path class="cls-5" d="M706,171.93a17.19,17.19,0,0,0,.5,4,26,26,0,0,0,4.76,9.93,29.37,29.37,0,0,0,5.38,5.42,33.11,33.11,0,0,0,7.6,4.39A46.42,46.42,0,0,0,744,198.83a50,50,0,0,0,19.45-4.74,37.49,37.49,0,0,0,12.89-10,32.25,32.25,0,0,0,5.44-9.6,22.11,22.11,0,0,0,1-3.91,1,1,0,0,0,0,.25l-.21.75a11.92,11.92,0,0,1-.37,1.2c-.16.56-.35,1.11-.56,1.65a32.73,32.73,0,0,1-5.55,9.43,37.59,37.59,0,0,1-12.89,9.92,50.23,50.23,0,0,1-19.32,4.57,45.72,45.72,0,0,1-19.54-3,32.31,32.31,0,0,1-7.54-4.28,30,30,0,0,1-5.37-5.32,26.34,26.34,0,0,1-4.84-9.75,16.69,16.69,0,0,1-.35-1.7,7.55,7.55,0,0,1-.19-1.25l-.1-.77A.7.7,0,0,0,706,171.93Z"/><path class="cls-6" d="M607.05,127.32a9,9,0,0,0-8.82,5.51h16.62a8.77,8.77,0,0,0-1.54-2.46A9.06,9.06,0,0,0,607.05,127.32Z"/><path class="cls-6" d="M540.57,127.32a9,9,0,0,0-8.82,5.51h16.62a8.81,8.81,0,0,0-1.55-2.46A9,9,0,0,0,540.57,127.32Z"/><path class="cls-6" d="M854.14,132.83h10.51a7.64,7.64,0,0,0-1-.71A8.3,8.3,0,0,0,854.14,132.83Z"/><path class="cls-6" d="M732.29,132.83h12.38a9,9,0,0,0-12.38,0Z"/><path class="cls-6" d="M535.28,227.75c16.12,0,26.48-35.79,30.73-54.15-13.08-5.78-24-10.69-24-10.69s-10.86,4.41-23.53,9.34C518,191.26,519.25,227.75,535.28,227.75Z"/><path class="cls-2" d="M615.55,136.89a8.92,8.92,0,0,0-.7-4.06H598.23a8.91,8.91,0,0,0-.7,3l-.1,2.08a1,1,0,1,1-2.08-.12l.12-2.08a11.17,11.17,0,0,1,.58-2.86h-45.5a10.91,10.91,0,0,1,.57,4.21v.37a18.21,18.21,0,0,1-1.2,5.42h64.23a16.26,16.26,0,0,0,1.4-5.58Z"/><path class="cls-2" d="M549.07,136.89a8.92,8.92,0,0,0-.7-4.06H531.75a8.91,8.91,0,0,0-.7,3l-.11,2.08a1,1,0,0,1-1.1,1,1.05,1.05,0,0,1-1-1.1l.13-2.08a11.17,11.17,0,0,1,.57-2.86H434.65v10h113a16.49,16.49,0,0,0,1.4-5.58Z"/><path class="cls-2" d="M747.5,139.39v0a9,9,0,0,0-2.83-6.53H732.29a9,9,0,0,0-2.83,6.56v2.08a1,1,0,1,1-2.08,0v-2.11a11,11,0,0,1,2.16-6.53H617a11.11,11.11,0,0,1,.58,4.21v.37a18.54,18.54,0,0,1-1.21,5.42H747.16a16.39,16.39,0,0,0,.34-3.13Z"/><path class="cls-2" d="M867.67,139.06a9.36,9.36,0,0,0-.17-1.67,8.25,8.25,0,0,0-2.85-4.56H854.14a8.28,8.28,0,0,0-1.87,2.15v0a1.05,1.05,0,0,1-1.43.36l0,0a1,1,0,0,1-.35-1.4,9.61,9.61,0,0,1,.78-1.11H747.43a11,11,0,0,1,2.15,6.56v.35a18.79,18.79,0,0,1-.29,3.09h118a15.28,15.28,0,0,0,.43-3.44Z"/><path class="cls-2" d="M951.65,132.83H867.56a9.78,9.78,0,0,1,2.19,6.23v.33a17.27,17.27,0,0,1-.39,3.44h82.29Z"/><path class="cls-4" d="M545.26,146.68a21.1,21.1,0,0,0-2.68,4,19.21,19.21,0,0,0-.76,2.21l1.07-.42,1.06.47c.14-.43.29-.86.46-1.28a20.46,20.46,0,0,1,2.43-3.62,18.28,18.28,0,0,0,3.08-5.2h-2.25A16.26,16.26,0,0,1,545.26,146.68Z"/><path class="cls-4" d="M540.57,127.32a9,9,0,0,1,6.25,3.05,8.81,8.81,0,0,1,1.55,2.46h2.18a11.07,11.07,0,0,0-21,0h2.19A9,9,0,0,1,540.57,127.32Z"/><path class="cls-2" d="M528.86,137.77a1.05,1.05,0,0,0,1,1.1,1,1,0,0,0,1.1-1l.11-2.08a8.91,8.91,0,0,1,.7-3h-2.19a11.17,11.17,0,0,0-.57,2.86Z"/><path class="cls-4" d="M551.12,137a10.91,10.91,0,0,0-.57-4.21h-2.18a8.92,8.92,0,0,1,.7,4.06v.36a16.49,16.49,0,0,1-1.4,5.58h2.25a18.21,18.21,0,0,0,1.2-5.42Z"/><path class="cls-4" d="M543.5,160.5a1.07,1.07,0,0,1-.84,1.23h-.2a1.06,1.06,0,0,1-1-.85,17.72,17.72,0,0,1,.36-8L519,161.72c-.1,1.5-.35,5.37-.47,10.53,12.67-4.93,23.53-9.34,23.53-9.34s10.91,4.91,24,10.69c1.12-4.8,1.81-8.41,2.09-9.88L544,152.93A15.66,15.66,0,0,0,543.5,160.5Z"/><path class="cls-4" d="M541.82,152.88a17.72,17.72,0,0,0-.36,8,1.06,1.06,0,0,0,1,.85h.2a1.07,1.07,0,0,0,.84-1.23,15.66,15.66,0,0,1,.45-7.57l-1.06-.47Z"/><path class="cls-7" d="M610.17,192c-1.36.31-25.08-10-44.16-18.41-4.25,18.36-14.61,54.15-30.73,54.15s-17.25-36.49-16.79-55.5c-16.85,6.55-36.9,14-39,13.28-6.88-2.46-2.73-7.51-2.73-7.51L519,161.72c0-.45,0-.7,0-.7l-31.52,8.55a35,35,0,0,0-20.16,14.69,128.08,128.08,0,0,0-7.88,14.05l-14.11,29.05,38,15.24,1.43-2.31,1.06,34.21-.79,95,113.1,6.24-.27-98.62,2.35-33.8,37.58-10.85s-4.1-10.28-13.47-30.4c-9.85-21.1-18.31-24-19.56-24.52L568.23,163s-.05.25-.13.72l42.82,19.13C612.5,184.9,612.45,191.49,610.17,192Z"/><path class="cls-7" d="M479.53,185.53c2.06.73,22.11-6.73,39-13.28.12-5.16.37-9,.47-10.53L476.8,178S472.65,183.07,479.53,185.53Z"/><path class="cls-7" d="M610.17,192c2.28-.52,2.33-7.11.75-9.16L568.1,163.72c-.28,1.47-1,5.08-2.09,9.88C585.09,182,608.81,192.32,610.17,192Z"/><path class="cls-4" d="M607.05,127.32a9.06,9.06,0,0,1,6.26,3.05,8.77,8.77,0,0,1,1.54,2.46H617a11.06,11.06,0,0,0-21,0h2.18A9,9,0,0,1,607.05,127.32Z"/><path class="cls-4" d="M611.75,146.68a20.19,20.19,0,0,0-2.68,4,17.86,17.86,0,0,0-1.13,10.21,1.07,1.07,0,0,0,1,.85h.21a1.07,1.07,0,0,0,.83-1.23,15.68,15.68,0,0,1,.91-8.85,20.51,20.51,0,0,1,2.44-3.62,18.48,18.48,0,0,0,3.07-5.2h-2.25A15.91,15.91,0,0,1,611.75,146.68Z"/><path class="cls-4" d="M617.61,137a11.11,11.11,0,0,0-.58-4.21h-2.18a8.92,8.92,0,0,1,.7,4.06v.36a16.26,16.26,0,0,1-1.4,5.58h2.25a18.54,18.54,0,0,0,1.21-5.42Z"/><path class="cls-2" d="M595.35,137.77a1,1,0,1,0,2.08.12l.1-2.08a8.91,8.91,0,0,1,.7-3h-2.18a11.17,11.17,0,0,0-.58,2.86Z"/><path class="cls-4" d="M744.26,149.34a21.14,21.14,0,0,0-2.43,4.16,17.32,17.32,0,0,0-.8,3.15l1.3-.59.86.34a16.32,16.32,0,0,1,.55-2.05,19.52,19.52,0,0,1,2.2-3.74,18.32,18.32,0,0,0,3.35-7.78h-2.13A16.48,16.48,0,0,1,744.26,149.34Z"/><path class="cls-4" d="M738.47,130.36a9,9,0,0,1,6.2,2.47h2.76a11.07,11.07,0,0,0-17.89,0h2.75A9,9,0,0,1,738.47,130.36Z"/><path class="cls-4" d="M749.58,139.39a11,11,0,0,0-2.15-6.56h-2.76a9,9,0,0,1,2.83,6.53v.34a16.39,16.39,0,0,1-.34,3.13h2.13a18.79,18.79,0,0,0,.29-3.09Z"/><path class="cls-2" d="M727.38,139.39v2.08a1,1,0,1,0,2.08,0v-2.08a9,9,0,0,1,2.83-6.56h-2.75a11,11,0,0,0-2.16,6.53Z"/><path class="cls-4" d="M743.34,163.25h0a1.05,1.05,0,0,1-.75,1.27h-.27a1,1,0,0,1-1-.8,17.39,17.39,0,0,1-.3-7.07L677.9,185.53s-3.78,5.28,3.16,7.31c3.7,1.08,61.06-26.29,61.06-26.29s69,25.88,71.2,25.21,4.84-4.26,3.2-6.23L743.19,156.4A15.84,15.84,0,0,0,743.34,163.25Z"/><path class="cls-4" d="M741,156.65a17.39,17.39,0,0,0,.3,7.07,1,1,0,0,0,1,.8h.27a1.05,1.05,0,0,0,.75-1.27h0a15.84,15.84,0,0,1-.15-6.85l-.86-.34Z"/><path class="cls-4" d="M864.7,148.24a21.27,21.27,0,0,0-2.27,3.85,16.44,16.44,0,0,0-.46,9.52,1,1,0,0,0,1,.72h.27a1,1,0,0,0,.75-1.26h0a14.37,14.37,0,0,1,.35-8.14,17.78,17.78,0,0,1,2.08-3.45,17.24,17.24,0,0,0,3-6.64h-2.12A14.93,14.93,0,0,1,864.7,148.24Z"/><path class="cls-4" d="M863.67,132.12a7.64,7.64,0,0,1,1,.71h2.91a10.35,10.35,0,0,0-16.32,0h2.9A8.3,8.3,0,0,1,863.67,132.12Z"/><path class="cls-4" d="M869.75,139.06a9.78,9.78,0,0,0-2.19-6.23h-2.91a8.25,8.25,0,0,1,2.85,4.56,9.36,9.36,0,0,1,.17,1.67v.33a15.28,15.28,0,0,1-.43,3.44h2.12a17.27,17.27,0,0,0,.39-3.44Z"/><path class="cls-2" d="M850.81,135.34l0,0a1.05,1.05,0,0,0,1.43-.36v0a8.28,8.28,0,0,1,1.87-2.15h-2.9a9.61,9.61,0,0,0-.78,1.11A1,1,0,0,0,850.81,135.34Z"/><path class="cls-4" d="M930.72,176.74l-67.89-17.59-63.41,12.7s-3.49,4.89,2.93,6.76C805.76,179.6,862,166,862,166s63.63,17.08,65.71,16.48S932.26,178.54,930.72,176.74Z"/><path class="cls-8" d="M930.72,176.74h0C930.76,176.59,930.76,176.61,930.72,176.74Z"/><path class="cls-8" d="M914.33,233.51v0Z"/><path class="cls-9" d="M525.93,198.31a129.75,129.75,0,0,1,7.88-14.05A35,35,0,0,1,554,169.57L585.5,161s3.74,21.83,25.42,21.83S634.71,163,634.71,163l36.5,14.55c1.24.49,9.7,3.42,19.55,24.52,9.38,20.12,13.47,30.41,13.47,30.41l-37.57,10.84-2.35,33.8L664.58,459l-113.1-6.23.79-178.3-1.06-34.21-1.44,2.31-37.95-15.24S516.71,217.32,525.93,198.31Z"/><path class="cls-7" d="M779.44,168.8S816,183.91,821,186.17c7.86,3.55,20.51,17.89,22.09,20.53h0s10.54,25.26,10.54,26.84-56,30.29-56,30.29L818,615.51l-147.21-3.22,18.86-351.46-46.4-27.92L648,222.37h0A54,54,0,0,1,676.22,185l31.65-16.17s3.68,3.44,35.79,3.44S779.44,168.8,779.44,168.8Z"/><path class="cls-9" d="M810.89,289.48,799,172.16l4.93-1.58c24.27,21.91,53.95,14.42,65.8,11.93,14.88-3.12,54.82-7.67,54.82-7.67l6.24,1.87L912.46,290.09c4.55,11.76,15.89,232.34,15.91,237.29,0,0-42.77,8.31-50,9.43-17.6,2.89-36.75-2.37-38.49-2.78s-58.62-7.91-58.62-7.91Z"/><path class="cls-10" d="M718.83,337c4.56,16.16,17.31,31,19.41,41.39a206.79,206.79,0,0,1,3.87,29.42c.62,11.05,1,16.56-.72,18.9-5.92,7.8-20.72,1.55-66.23-7.22"/><path class="cls-11" d="M714.74,387.28l-18.31-26.46c-.81-1.23-8-12.74-8.76-14l-3.5-7.38c.29-7.83,4.2-13.94,11-18.21a23.69,23.69,0,0,1,20.68-1.33l21.94,55.44C726.46,376.69,721.64,378.21,714.74,387.28Z"/><path class="cls-12" d="M619.56,771.66c3.11,8.4,2.28,9.61,1,18.5l-71.47.09q-2.79-9.21,3.21-10c9.34,2,36.85-16.2,44.84-15.55C600,778.3,612.81,768.13,619.56,771.66Z"/><path class="cls-13" d="M770.34,740.27c6.72,5.92,6.57,7.37,9.66,15.81l-62.88,34q-6.82-6.78-1.89-10.27c9.16-2.68,24.75-31.74,32.1-35C756.31,755.37,762.73,740.36,770.34,740.27Z"/><path class="cls-13" d="M728.47,473.09c1.27,90.95,6.1,156.15,7.33,164.41s5.07,17,40.89,113.88l-27.16,14.78C704,673.29,685.77,627.08,680.47,614.89s-21.71-61.79-46.42-148.77Z"/><polygon class="cls-12" points="708.95 466.03 658.87 642.55 617.24 779.13 589.69 779.16 630.15 463.83 708.95 466.03"/><path class="cls-10" d="M624.32,338.93l-37.07,2.5-93.41-7.5a12.35,12.35,0,0,1-7.46-3c-3.71-3.17-9.53-3.52-18.63-3.23-3.67-.65-29.15,9.35-16.45,9.2,5-1.29,7.05-3.2,9.38-2.13-2.76,2.91-5.18,5.85-3.28,10.19a24.56,24.56,0,0,1,1.07,3.13c1,3.69,3.48,4.47,7.53,5.56,1.32-4.74-4.56-9.16-.37-7.77,6.58,2.19,19.68.92,26.6,2.87,0,0,72,21.12,97.77,21.17,1.9,0,50.56-2.21,50.56-2.21S643.71,333.2,624.32,338.93Z"/><path class="cls-14" d="M675.46,340.07l18,3.63,9-45.48-35.66-7.06a40.52,40.52,0,0,0-18.92,26.6,21.8,21.8,0,0,0,3.47,18.06A22.71,22.71,0,0,0,675.46,340.07Z"/><path class="cls-15" d="M708.1,318.14l7.59-32.86a31.88,31.88,0,0,0-23.84-38.18l-2.87-.68a31.81,31.81,0,0,0-36.77,19.32l-4.89,21.19,31.4,24.36Z"/><path class="cls-10" d="M649.43,279l2.19-4.35c2.87-4.94,2.27-5.61,3.7-8.08a21.09,21.09,0,0,1,5.59-6.36,17.37,17.37,0,0,1,7-5.63c15-7.48,41,4.48,39.59,22-.78,9.45-5.89,17.08-12.71,23l-2.54,1.94-.62,41.36a6.63,6.63,0,0,1-8.11,6.37h0a14.75,14.75,0,0,1-11.47-15l.87-21.62c-5.69-.44-13.73,5.3-21.6-.82-3.82-3-3-9.43-2.61-14.91a32.17,32.17,0,0,1-.06-4.39l0-.33a4.32,4.32,0,0,0-1.69-3.69l-1.79-2C644.58,285.07,646.61,283.28,649.43,279Z"/><path class="cls-14" d="M690.68,284c-2-.51-6.61,1.53-8.39,2.32-15.1,6.47-21.63-18.75-22.33-31.77-.51-8.79,23.84-12.14,28.73-11.46,12.94,1.83,26.81,10.6,30,23.82,1.75,7.21.28,14.77-.49,22.2-1.87,18.72,10.9,27.64,16.81,43.77a27,27,0,0,0-49.33-.35,90,90,0,0,1-2.19-10.22c-1-7.25-.9-15.05,2.94-21.6.1-.11.21.09.41.08A8.62,8.62,0,1,0,690.68,284Z"/><path class="cls-16" d="M728.8,475.66c1.4-1,1.27-2.87.91-4.44-25.75-58.53-14.84-49.21-.09-107,3.65-17.62-15.53-27.57-29.06-32.5-.18,2.65-19.61.18-19.27-1.73C671.22,317.48,641,342.85,633,348.59c-4.7,3.42,1.91,10.59-.35,16.05-5.53,13.41-4.41,33.06,2.57,41.81,15.62,19.58-6.72,44.91-7.85,64.33,3.31,14.81,35.55,21.28,47.59,21.27C694.35,491.81,710.86,481.52,728.8,475.66Z"/><path class="cls-17" d="M631.33,367.69c-4.09,13.14-2.62,30.36,3.79,38.4a24.91,24.91,0,0,1,5.48,13.42c8.59-29.09,35.73-54.34,35.73-54.34Z"/><path class="cls-18" d="M614,372l52-1a21.11,21.11,0,0,0,20.81-21.28v-.26a1.94,1.94,0,0,1,0-.24,20.37,20.37,0,0,0-23-18.14l-56.08,7.21C615.44,348.44,618.12,360.11,614,372Z"/><path class="cls-14" d="M709.13,357.12a21.65,21.65,0,0,0,23.16-1.53c11.13-8.14,4.48-21.28-1.16-30.13-3.08-4.87-6.37-9.61-9.33-14.49-.25-.33-4.65-9.35-3.51-9.29-12.46-1.13-7.82-1.69-18.92-7.66a25,25,0,0,1-.55,12.66c-4.08,12.72-16.81,13.43-20.7,25.22a22,22,0,0,0,3.9,20.32A25.09,25.09,0,0,0,709.13,357.12Z"/><rect class="cls-19" x="470.98" y="483.93" width="413.59" height="306.32"/><line class="cls-20" x1="470.98" y1="483.93" x2="884.57" y2="483.93"/><rect class="cls-21" x="458.52" y="461.27" width="438.5" height="22.66"/><path class="cls-22" d="M515.09,510.83a3.32,3.32,0,0,0-.06-.44L494.51,386l-84.92,1.32L397.12,510.83Z"/><polygon class="cls-19" points="500.26 510.83 494.5 386.04 483.47 386.21 481.6 386.24 419.77 387.2 417.87 387.23 409.59 387.36 391.89 510.83 500.26 510.83"/><path class="cls-23" d="M432.93,397.3a3.75,3.75,0,1,1-3.81-3.69A3.74,3.74,0,0,1,432.93,397.3Z"/><path class="cls-23" d="M469.52,397.3a3.75,3.75,0,1,1-3.8-3.69A3.74,3.74,0,0,1,469.52,397.3Z"/><path class="cls-23" d="M431.35,394.31c.06-.36.11-.72.17-1.08,6.17-37.13,19.21-62.48,27.53-62.87h.18a4.35,4.35,0,0,1,3.23,1.59c6.44,6.84,7.68,31.18,3,59.18-.14.86-.29,1.71-.44,2.55a3.73,3.73,0,0,1,2.62.45l.45-2.6c4.84-29.16,3.36-53.78-3.68-61.27a7,7,0,0,0-5.52-2.43c-12.13.57-24.79,33.49-30,65,0,.27-.08.53-.13.8l.35,0A3.74,3.74,0,0,1,431.35,394.31Z"/><path class="cls-23" d="M459.19,330.42a4,4,0,0,1,.69-.06,4.72,4.72,0,0,1,2.93,1.17c7.09,5.67,11.83,28,11.79,54.82l2.66-.05c0-27.94-5-50.5-12.75-56.71a7,7,0,0,0-5.82-1.65c-10.75,2-18,30.07-19.73,59l2.65,0C443.44,354.33,451.72,331.8,459.19,330.42Z"/><g id="Walking"><path class="cls-24" d="M144.85,458c-13.41,46.1,9.05,48.4-5.14,63.68-3.27-10.86-13.49-4.88-17.33,1.64-3.16,5.48-6.38,10.07-12.22,4-7-7.26-9.2-18.71-4.14-27.52,3.79-6.68,12.79-9.8,14.86-17.22-.67-6.69-1.12-13.3-1.29-19.49"/><path class="cls-25" d="M223,339.88c12.41-8.44,16.4-24.21,8.89-35.24s-23.6-13.34-36-5c0,0-90.89,47.3-79.73,170.16l27.57,2a4.69,4.69,0,0,0,5.13-4.21C150.86,450.86,162.45,391.44,223,339.88Z"/><path class="cls-12" d="M83.69,710.38l19.85-8.89c1.65,8.07,7,16.39,16.22,25q-3.09,23.22,6.1,51.31a2.78,2.78,0,0,1-1.73,3.46c-.09,0-.17.08-.25.08l-6.67,1.4-22.65-43L81.3,714.66Z"/><path class="cls-13" d="M253.58,786.37l.49-21.74c8,2,17.79.74,29.48-4,13.18,8.48,29.4,14.08,48.92,16.55a2.78,2.78,0,0,1,2.39,3,.63.63,0,0,1-.08.33l-1.65,6.59-48.51,1.89-28.24,1.16Z"/><path class="cls-26" d="M279.26,253.45l-.21-.52c-1.38-3.41-3.61-6.48-4.23-10.16-.79-4.53-.42-9.13-1.55-13.68-2-8.09-6.18-11.56-14-13.84a40,40,0,0,0-7.65-1.44,43.64,43.64,0,0,0-21.18,3.51c-8.05,3.49-13.54,10.16-14.4,18.93a31.53,31.53,0,0,0,.66,9.3c.81,4.28,3.94,7.51,5.44,11.51a37.48,37.48,0,0,1,1.73,5.18l-13.6,32.7c9.49,2.25,12.32,5,21.82,7.2,3.81.88,10.46,5.46,11.71-.8,1.06-5,1.29-19.23,4.88-22.83,3.32-3.28,8.9-.77,12.78.36,2.34.69,5.3,1.91,7.74,1.28,3.13-.9,4.3-4.2,4.61-7,.42-4.26-.73-8.49-.23-12.66a5.35,5.35,0,0,1,2.23-4.12C277.17,255.84,279.91,255.65,279.26,253.45Z"/><path d="M281.93,224.17c.27-2.38,1.12-7.85-2-8.84-3.3-1.09-4-3.29-4-3.29a5.34,5.34,0,0,0-2.45-3.42c-2.06-1.15-5.65.29-6.5-1.43a3.82,3.82,0,0,0-2.87-2.37c-1.45-.45-3.36-1.35-4.95-1.14-2,.25-2,2.48-4.21,2.06-1.3-.27-2.83-1.8-3.74-2.78,0,0-2.43-2.67-5.27-1.25s-4.45,2-5.85,1.85c-12.44-1.41-24.41,7.71-27.74,19.43-3.52,12,2.63,23.92,4.67,35.65.67,4,12.1,2.62,12.1,2.62s-8.45-9-4.64-17.39c1.91-4.31,6.42-2.88,9.66-1.05a20.48,20.48,0,0,1,5.87,5.1c1.2,1.58,2.28,5.63,4.59,5.65a3,3,0,0,0,2.06-.91,13.12,13.12,0,0,0,4.66-7.64c.21-1.64,0-3.22.22-4.86a6.62,6.62,0,0,1,3-5.21,36.29,36.29,0,0,1,5.92-2.83,1.56,1.56,0,0,0,.61-.37c1.43-1.37-1.23-5.22-2.23-6.21,1.72,1.21,4.09.5,5.79-.11a23.45,23.45,0,0,1,6.63-1.29C272.16,224.38,281.89,224.66,281.93,224.17Z"/><path d="M254.08,766.94l-6.83-117.27c1.13-3-55.69-157.37-56.58-161.84L230,476.05l42.08,1.56c6.9,33.14,18.17,99.43,24.95,132.12,1.54,9.79,5.71,20.19,4.7,30.22h0c-4.33,35.48-11.63,92.28-15.73,128.31Z"/><path class="cls-22" d="M114.25,731.2l116.94-81.53a16.46,16.46,0,0,0,6.92-12.11l8.89-77,8.9-83.69-82.11-3,7.41,138.29a13.23,13.23,0,0,1-2.72,8.89h0l-1.72,1.81-3,2.88L93.58,705.92Z"/><path class="cls-27" d="M274.68,415.16c2.74,18.91,16.16,50.29-.27,66.33-4.7,4.26-96.77,3.11-101.82.45-14.26-7.51-8.29-30.47-2-41.62,24.42-48.61-23.11-136.2,45.46-159.54,3.61,6.14,30.61,18,32.74,18.32,5.66,2.18,10.58,41,11.84,47.18C265.37,369.23,269.86,392.24,274.68,415.16Z"/><path class="cls-26" d="M402.86,370.39c19.71,2.14,30.14-1.63,45.76-13.66,5.27-3.21,6.23-17.72-1.84-16.74-3.44.8-9.13,3-14.24,4s-9.87.73-11.23-2.61c-1.19-2.49,5.51-6.39,1.47-8.67-8.92,4.34-15.83,13.77-24.91,18.63v0"/><path class="cls-28" d="M239.11,334c-12.21-7.79-27.76-5.25-34.74,5.68-6.52,10.22-2.41,22.24,5.33,30.58,18.9,20.36,50.64,30.33,77.6,32.14a171.11,171.11,0,0,0,52.79-5.18c6.78-1.7,66.34-21.21,64.68-26.77l-6.44-21.57S320.43,373.87,239.11,334Z"/></g><path class="cls-17" d="M271.64,400.46c-20.1-3.54-40.94-11.48-56.1-24.6,16.2,22.31,39.4,49.59,65.63,69.86-1.86-11-5.25-22.05-6.49-30.56Q273.14,407.82,271.64,400.46Z"/><ellipse class="cls-29" cx="512.32" cy="789.42" rx="512.32" ry="26.41"/><path class="cls-10" d="M587.25,341.43l-93.41-7.5a12.35,12.35,0,0,1-7.46-3c-3.71-3.17-9.53-3.52-18.63-3.23-3.67-.65-29.15,9.35-16.45,9.2,5-1.29,7.05-3.2,9.38-2.13-2.76,2.91-5.18,5.85-3.28,10.19a24.56,24.56,0,0,1,1.07,3.13c1,3.69,3.48,4.47,7.53,5.56,1.32-4.74-4.56-9.16-.37-7.77,6.58,2.19,19.68.92,26.6,2.87,0,0,72,21.12,97.77,21.17"/></g></g></svg>