<?xml version="1.0" encoding="utf-8"?>
<!-- Generator: Adobe Illustrator 25.2.1, SVG Export Plug-In . SVG Version: 6.00 Build 0)  -->
<svg version="1.1" id="Layer_1" xmlns="http://www.w3.org/2000/svg" xmlns:xlink="http://www.w3.org/1999/xlink" x="0px" y="0px"
	 viewBox="0 0 930.8 833.3" style="enable-background:new 0 0 930.8 833.3;" xml:space="preserve">
<style type="text/css">
	.st0{fill:#E6E6E6;}
	.st1{fill:none;stroke:#F1F1F1;stroke-width:3.91;stroke-linecap:round;}
	.st2{fill:none;stroke:#F1F1F1;stroke-width:3.91;}
	.st3{fill:#DDDDDD;}
	.st4{fill:#F48020;}
	.st5{fill:#905B3D;}
	.st6{fill:#3A3A3A;}
	.st7{fill-rule:evenodd;clip-rule:evenodd;}
	.st8{fill-rule:evenodd;clip-rule:evenodd;fill:#3A3A3A;}
	.st9{fill:#F38020;}
	.st10{fill:url(#SVGID_1_);}
	.st11{opacity:0.2;fill:#754C24;enable-background:new    ;}
	.st12{fill:url(#SVGID_2_);}
</style>
<g>
	<g id="Layer_2_6_">
		<g id="Layer_1-2_5_">
			<polygon class="st0" points="849.1,235.2 857.8,0 658.6,109.7 			"/>
			<path class="st1" d="M72,709.6h856.8"/>
			<path class="st1" d="M72,593.5h856.8"/>
			<path class="st1" d="M72,479.5h856.8"/>
			<path class="st1" d="M72,363.5h856.8"/>
			<path class="st2" d="M72,825.7h856.8"/>
			<path id="Rectangle-Copy-67-2_1_" class="st3" d="M2.9,805.5h45.2c1.6,0,2.9,1.3,2.9,2.9v14.4c0,1.6-1.3,2.9-2.9,2.9H2.9
				c-1.6,0-2.9-1.3-2.9-2.9v-14.4C0,806.8,1.3,805.5,2.9,805.5z"/>
			<path id="Rectangle-Copy-67-4_1_" class="st3" d="M2.9,353.8h45.2c1.6,0,2.9,1.3,2.9,2.9V371c0,1.6-1.3,2.9-2.9,2.9H2.9
				c-1.6,0-2.9-1.3-2.9-2.9v-14.4C0,355.1,1.3,353.8,2.9,353.8z"/>
			<path id="Rectangle-Copy-67-5_1_" class="st3" d="M2.9,468.6h45.2c1.6,0,2.9,1.3,2.9,2.9v14.4c0,1.6-1.3,2.9-2.9,2.9H2.9
				c-1.6,0-2.9-1.3-2.9-2.9v-14.4C0,469.9,1.3,468.6,2.9,468.6z"/>
			<path id="Rectangle-Copy-67-6_1_" class="st3" d="M2.9,583.5h45.2c1.6,0,2.9,1.3,2.9,2.9v14.4c0,1.6-1.3,2.9-2.9,2.9H2.9
				c-1.6,0-2.9-1.3-2.9-2.9v-14.4C0,584.8,1.3,583.5,2.9,583.5z"/>
			<path id="Rectangle-Copy-67-7_1_" class="st3" d="M2.9,698.3h45.2c1.6,0,2.9,1.3,2.9,2.9v14.4c0,1.6-1.3,2.9-2.9,2.9H2.9
				c-1.6,0-2.9-1.3-2.9-2.9v-14.4C0,699.6,1.3,698.3,2.9,698.3z"/>
			<g>
				<path class="st4" d="M799.9,253.3h89.3c4.2,0,7.7,3.4,7.7,7.6v557c0,4.2-3.4,7.7-7.7,7.7h-89.3c-4.2,0-7.7-3.4-7.7-7.7V261
					C792.2,256.8,795.6,253.3,799.9,253.3z"/>
				<path class="st4" d="M663.4,446.8h89.3c4.2,0,7.7,3.4,7.7,7.6V818c0,4.2-3.4,7.7-7.7,7.7h-89.3c-4.2,0-7.7-3.4-7.7-7.7V454.5
					C655.7,450.3,659.2,446.8,663.4,446.8z"/>
				<path class="st4" d="M526.9,555.5h89.3c4.2,0,7.7,3.4,7.7,7.7V818c0,4.2-3.4,7.7-7.7,7.7h-89.3c-4.2,0-7.7-3.4-7.7-7.7V563.1
					C519.2,558.9,522.7,555.5,526.9,555.5z"/>
				<path class="st4" d="M390.4,648.3h89.3c4.2,0,7.6,3.4,7.6,7.7V818c0,4.2-3.4,7.7-7.6,7.7h-89.3c-4.2,0-7.6-3.4-7.6-7.7V655.9
					C382.8,651.7,386.2,648.3,390.4,648.3z"/>
				<path class="st4" d="M253.9,708.1h89.3c4.2,0,7.6,3.4,7.6,7.7V818c0,4.2-3.4,7.7-7.6,7.7h-89.3c-4.2,0-7.6-3.4-7.6-7.7V715.7
					C246.3,711.5,249.7,708.1,253.9,708.1z"/>
				<path class="st4" d="M117.4,767.9h89.3c4.2,0,7.6,3.4,7.6,7.7V818c0,4.2-3.4,7.7-7.6,7.7h-89.3c-4.2,0-7.7-3.4-7.7-7.7v-42.5
					C109.8,771.3,113.2,767.9,117.4,767.9z"/>
			</g>
			<path class="st5" d="M445.1,279c11.3-5.6,31.2-18,45-14c13.8,15.1-12.8,39.5-24,36.1C451.7,296.7,447.8,284,445.1,279z"/>
			<path class="st0" d="M740.9,122.8c-61.3,89.8-132.2,172.5-211.4,246.9c-64.6,60.6-134.1,115.6-207.9,164.5
				c-16.7,11.1-32.9,21.3-48.4,30.8l-14.2,99.5l-66,43.3c42.1-20.5,102-52.5,171.2-98.1c78.1-51.6,151.7-109.6,220-173.6
				c84.4-79,159.8-167,225-262.5L740.9,122.8z"/>
			<path d="M168.1,732.3l24.7-15.5c-9.9,4.6-18.8,8.6-26.8,12C166.8,730,167.5,731.2,168.1,732.3z"/>
			<path d="M281.1,469.5c-6.2-6.7-58.7-21.2-68.2,22.4c-1.1,4.4-1.7,9-1.8,13.6c-0.5,14.3-1.2,64.3-1.8,102.9
				c-0.4,26.6-0.6,47.8-0.6,47.8L150.9,707c0,0,9,11.8,15.1,21.8c8-3.5,16.9-7.5,26.8-12l71-44.6c0,0,8.4-56.2,15.3-102.2
				c3.5-23.3,6.6-44,8-53.5C289.5,500.4,292.2,481.3,281.1,469.5z"/>
			<path class="st6" d="M201.4,492.8c26.1,37.8,150.2,40.1,150.2,40.1l48.6,123l27.5-5.7l-28.7-146.7c-1.7-8.5-7.5-15.7-15.4-19.1
				l-139.6-60c0,0-23.4-2.8-38.9,7.3C202.2,433.6,187.2,470.1,201.4,492.8z"/>
			<path class="st7" d="M132.8,718l19.4-11.6c2.7,8.2,9.2,16.1,19.9,23.9c-0.2,16.3,4,33.7,12.6,52.3c0.7,1.4,0,3.1-1.4,3.8
				c-0.1,0-0.2,0.1-0.2,0.1l-6.7,2.3l-28.7-41.7l-16.8-24.4L132.8,718z"/>
			<path class="st8" d="M399.8,668.2L396,646c8.5,0.4,18.3-2.7,29.2-9.8c15.1,6.1,32.7,8.6,53,7.3c1.5-0.1,2.9,1.1,3,2.6
				c0,0.1,0,0.2,0,0.3l-0.4,7l-49,11.4l-28.5,6.7L399.8,668.2z"/>
			<path class="st9" d="M303.2,277.7l68.5,44.8l75-45.9l13,20.6c0,0-81.6,65.6-88.7,64.7S304.7,338,304.7,338l-9-62.8l3.8,0.9
				C300.8,276.4,302.1,276.9,303.2,277.7z"/>
			
				<linearGradient id="SVGID_1_" gradientUnits="userSpaceOnUse" x1="-7610.6724" y1="470.9361" x2="-7489.7197" y2="470.9361" gradientTransform="matrix(-1 0 0 -1 -7306.5298 834)">
				<stop  offset="0" style="stop-color:#FD7D0E"/>
				<stop  offset="1" style="stop-color:#FFA423"/>
			</linearGradient>
			<path class="st10" d="M183.2,301.3c0,0,8.5-14.6,11.5-16.5c6-3.8,12.3-7.1,18.9-9.7c13.4-5.4,24.5-7.8,38.9-7.5
				c10.9,0.3,40.2,2.1,47.9,8.9c9.8,8.7-2.3,171.3-2.5,171.4c-37.9,15.5-61.7,12.8-100-1.5c2.9-31.6,4.4-74.4-4-105.1
				C189.3,326,190.2,315.8,183.2,301.3z"/>
			<path class="st11" d="M207.6,288.1c29.2,26.6,7.7,28.8,1.5,46.9c1,21.2,12.1,30.1-4.6,46.1c-1.7,0-3.4-0.1-5-0.4
				c-0.5-10.7-1.9-21.4-4-31.9C204.4,329.9,210.4,305.5,207.6,288.1z"/>
			<path class="st6" d="M271.8,335.5c-2,0.2-3.5,1.7-3.8,3.7l-5.4,53.9c-0.2,2.3,1.4,4.3,3.7,4.5c0.2,0,0.5,0,0.7,0l96.2-8
				c2-0.2,3.5-1.7,3.7-3.7l5.1-57.2c0.1-1.7-1.2-3-2.9-2.9L271.8,335.5z"/>
			<path class="st5" d="M249.6,401.4c-3.8-22.9,21.6-20.4,36.4-24.6c8.6,0.7,1.5,12.4,1.3,20.7C286.7,420.6,261,400.4,249.6,401.4z"
				/>
			
				<linearGradient id="SVGID_2_" gradientUnits="userSpaceOnUse" x1="8561.3047" y1="4890.4619" x2="8676.084" y2="4890.4619" gradientTransform="matrix(0.96 0.27 0.27 -0.96 -9393.1006 2717.8301)">
				<stop  offset="0" style="stop-color:#FFA423"/>
				<stop  offset="1" style="stop-color:#FD7D0E"/>
			</linearGradient>
			<path class="st12" d="M185.4,373.9c57-106.4,0.2-133.2-36.3-6.7c-4.6,15.9-3.6,31.1,8.5,37c29.6,14.5,100.5-0.4,100.5-0.4
				l1.8-22.6C259.8,381.2,216.2,378.9,185.4,373.9z"/>
		</g>
	</g>
	<path class="st5" d="M229.2,267.6l-0.1-18.5c-1.1-1.5-2.3-2.9-3.7-4.2c-3-3.2-7.2-4.9-9.6-8.6c-1.8-2.6-3.3-5.4-4.3-8.5
		c-2.6-8.5-0.1-16.9,6-23.4c5.1-5.4,11.4-9.4,18.4-11.6c2.5-0.8,5.1-1.4,7.7-1.7c8.2-1,13.5,0.7,18.6,7.4c2.8,3.8,4.3,8.3,6.8,12.2
		c2,3.2,5.3,5.2,8,7.9l0.4,0.4c1.5,1.8-1,3.1-2.1,4.1c-0.9,1.4-1.1,3.2-0.5,4.7c1.2,4.1,3.9,7.6,5.2,11.8c0.8,2.7,1,6.3-1.6,8.4
		c-2,1.5-5.3,1.6-7.8,1.8c-4.1,0.5-10.3,0.3-12.1,4.7c-1.1,2.7,0.1,8,1.6,13.1c1.5,5.5-1.8,11.1-7.4,12.3l-6.5,1.4
		C237.6,283.3,229.3,276.6,229.2,267.6z"/>
	<path d="M268.5,190.6c-0.7-2.3-2-7.8-5.4-7.5c-3.5,0.3-5-1.5-5-1.5c-0.9-1.2-2.2-2-3.6-2.2c-2.4-0.3-5.2,2.5-6.6,1.2
		c-0.9-1-2.3-1.4-3.6-1.1c-1.5,0.2-3.7,0.1-5.1,0.9c-1.8,1-0.9,3.1-3.1,3.6c-1.3,0.3-3.4-0.6-4.6-1.1c0,0-3.3-1.5-5.4,0.9
		c-2.1,2.4-3.4,3.6-4.7,4c-12.2,3.6-19.8,16.8-18.3,29.1c1.4,12.6,11.9,21.3,18.4,31.5c2.2,3.5,12.4-2.3,12.4-2.3
		s-11.5-5.1-11.2-14.5c0.1-4.8,4.9-5.2,8.6-4.8c2.6,0.3,5.2,1.2,7.5,2.5c1.7,1,4.4,4.4,6.5,3.5c0.7-0.3,1.3-0.9,1.6-1.7
		c1.5-2.7,2-5.9,1.4-9c-0.4-1.6-1.3-3-1.7-4.6c-0.7-2-0.5-4.3,0.7-6.1c1.3-1.8,2.8-3.5,4.4-5c0.2-0.2,0.3-0.3,0.4-0.6
		c0.8-1.9-3.2-4.4-4.5-4.9c2.1,0.5,4-1.1,5.4-2.4c1.7-1.6,3.6-2.8,5.7-3.8C259.5,194.6,268.7,191.1,268.5,190.6z"/>
</g>
</svg>
